<?xml version="1.0" encoding="utf-8"?>
<!-- Generator: Adobe Illustrator 16.0.0, SVG Export Plug-In . SVG Version: 6.00 Build 0)  -->
<!DOCTYPE svg PUBLIC "-//W3C//DTD SVG 1.1//EN" "http://www.w3.org/Graphics/SVG/1.1/DTD/svg11.dtd">
<svg version="1.1" xmlns="http://www.w3.org/2000/svg" xmlns:xlink="http://www.w3.org/1999/xlink" x="0px" y="0px" width="1024px"
	 height="1024px" viewBox="0 0 1024 1024" enable-background="new 0 0 1024 1024" xml:space="preserve">
<g id="Layer_6" display="none">
	<path display="inline" fill="#181818" d="M1024.5,896.5c0,70.6934-57.3076,128-128,128h-768c-70.6924,0-128-57.3066-128-128v-768
		c0-70.6924,57.3076-128,128-128h768c70.6924,0,128,57.3076,128,128V896.5z"/>
</g>
<g id="Layer_7">
	<g>
		<linearGradient id="SVGID_1_" gradientUnits="userSpaceOnUse" x1="512.0005" y1="960" x2="512.0004" y2="64.0005">
			<stop  offset="0.7393" style="stop-color:#181818"/>
			<stop  offset="1" style="stop-color:#262626"/>
		</linearGradient>
		<circle fill-rule="evenodd" clip-rule="evenodd" fill="url(#SVGID_1_)" cx="512" cy="512" r="448"/>
	</g>
</g>
<g id="Layer_8" display="none">
	<rect display="inline" fill-rule="evenodd" clip-rule="evenodd" fill="#231F20" width="1024" height="1024"/>
</g>
<g id="Layer_3">
	<g id="k8fm86_1_">
		<g>
			<path fill-rule="evenodd" clip-rule="evenodd" fill="#FEB301" d="M380.5493,335.8813
				c41.7041-20.7832,83.4121-41.5596,125.0991-62.3774c1.5635-0.7808,3.6104-0.9854,4.3516-3.0039c1.6665,0,3.334,0,5,0
				c11.7949,5.9819,23.5566,12.0308,35.3916,17.9326c30.3408,15.1318,60.7148,30.1958,91.0684,45.3018
				c1.0303,0.5127,1.9814,1.1855,2.9678,1.7837c-0.6836,0.4551-1.3271,0.9897-2.0557,1.3545
				c-42.252,21.1382-84.5244,42.2354-126.7354,63.4541c-2.4902,1.2515-4.2627,0.6987-6.4336-0.3882
				c-15.0288-7.5234-30.1094-14.9434-45.1548-22.4341C436.2085,363.6436,408.3813,349.7568,380.5493,335.8813z"/>
			<path fill-rule="evenodd" clip-rule="evenodd" fill="#D9D9D9" d="M991.1895,509.4609c0.9375,0.0132,1.874,0.0259,2.8105,0.0391
				c0,2.3335,0,4.666,0,7c-22.3037,11.1357-44.6084,22.2686-66.9111,33.4072c-21.293,10.6348-42.6201,21.2002-63.8457,31.9678
				c-4.9766,2.5244-9.1992,2.7891-14.4883,0.127c-41.6201-20.9414-83.4121-41.5439-125.1484-62.2559
				c-1.7803-0.8828-3.7686-1.5234-4.9424-3.2598c-1.5371-2.2744-2.3994-4.5435,1.0205-6.0293
				c1.29,2.1748,3.6514,2.793,5.6953,3.8125c27.9033,13.9297,55.8242,27.8232,83.7402,41.7256
				c0.3389,1.3438,1.3691,1.4316,2.4834,1.3662c13.4297,6.5586,26.8906,13.0527,40.2588,19.7324
				c2.4561,1.2266,4.3223,1.4199,6.9033,0.123c42.4805-21.3506,85.0264-42.5703,127.5449-63.8447
				C988.1904,512.4316,990.4844,511.9087,991.1895,509.4609z"/>
			<path fill-rule="evenodd" clip-rule="evenodd" fill="#F8B308" d="M648.4229,679.9072c4.1475,4.2891,3.543,7.1279-2.3789,10.0869
				c-19.7588,9.874-39.5488,19.6846-59.3291,29.5156c-22.3008,11.082-44.6113,22.1426-66.8809,33.2852
				c-1.3643,0.6816-3.3184,0.7422-3.834,2.7051c-2,0-4,0-6,0c-0.6763-2.0664-2.7715-2.1562-4.2915-2.9141
				c-41.6572-20.7695-83.3472-41.4746-125.0234-62.207c-6.3677-3.167-7.1357-5.3086-3.708-9.9229
				c0.2827,2.3945,2.2256,3.126,4.0161,4.0146c42.9531,21.3066,85.9102,42.6055,128.8428,63.9531
				c1.9463,0.9678,3.5176,1.1387,5.582,0.1035c43.1514-21.6484,86.3428-43.2188,129.5391-64.7783
				C646.6621,682.8975,648.2285,682.0586,648.4229,679.9072z"/>
			<path fill-rule="evenodd" clip-rule="evenodd" fill="#D9D9D9" d="M305.9043,509.5244c3.2905,0.8032,3.2061,2.9229,1.9175,5.2959
				c-1.2451,2.2949-3.4634,3.4902-5.7319,4.6152c-42.1895,20.915-84.3794,41.8281-126.5332,62.8125
				c-3.5317,1.7578-6.5273,1.8867-10.2368,0.0312c-43.0054-21.5117-86.1006-42.8438-129.1792-64.209
				c-1.3208-0.6562-2.5278-1.6641-4.1406-1.5703c0-2,0-4,0-6c0.812-0.0264,1.624-0.0522,2.4365-0.0786
				c1.686,1.0361,3.3037,2.209,5.0684,3.0874c20.2373,10.0723,40.5142,20.0654,60.7461,30.1475
				c22.9028,11.4141,45.7705,22.8975,68.6538,34.3506c0.6929,1.5293,1.418,1.6182,2.1807,0.0498l0.1699,0.1973
				c0.7939,0.0352,1.3574-0.2773,1.6074-1.0635l-0.1089,0.0635c0.9785,0.1885,1.8203,0.1113,2.085-1.0791l-0.0859,0.085
				c1.0161,0.1816,1.8511,0.0293,2.1289-1.1523c2.5293-1.2471,5.0586-2.4941,7.5874-3.7412
				c1.022,0.0566,2.0225,0.0713,2.3926-1.1865l-0.105,0.0801c0.9766,0.1836,1.8179,0.1055,2.0864-1.0801l-0.0864,0.0801
				c0.9766,0.1836,1.8179,0.1055,2.0864-1.0801l-0.0864,0.0801c0.9766,0.1836,1.8179,0.1055,2.0864-1.0801l-0.0874,0.085
				c1.0137,0.1768,1.8491,0.0244,2.127-1.1533c1.3003-0.7266,2.5742-1.5059,3.9053-2.1719
				c33.9238-16.9619,67.855-33.9102,101.7808-50.8691C302.4897,512.1108,304.5859,511.3979,305.9043,509.5244z"/>
			<path fill-rule="evenodd" clip-rule="evenodd" fill="#DBDBDB" d="M210.9062,422.0884c0.375-2.1934,2.3022-2.7036,3.8989-3.502
				c40.5215-20.2617,81.0547-40.4995,121.5757-60.7632c3.2363-1.6182,6.1123-2.2212,9.7847-0.3833
				c40.3564,20.1973,80.8198,40.1807,121.2227,60.2856c1.7974,0.894,4.4004,1.1133,4.6392,3.9487
				c-0.5259,0.3799-1.0107,0.8418-1.5835,1.1279c-41.957,20.9849-83.9365,41.9253-125.8467,63.0034
				c-2.4937,1.2539-4.2495,0.8022-6.4346-0.2896c-18.0059-8.9985-36.0591-17.9009-54.0752-26.8789
				C259.6831,446.4761,235.2993,434.2734,210.9062,422.0884z"/>
			<path fill-rule="evenodd" clip-rule="evenodd" fill="#DBDBDB" d="M724.8965,508.1826c-0.1279-2.3843,1.7637-2.9697,3.3848-3.7739
				c41.0127-20.3457,82.0264-40.688,123.042-61.0273c2.5967-1.2876,4.9814-1.814,7.9619-0.3252
				c41.5557,20.7461,83.1816,41.3521,124.7852,62.001c1.1924,0.5918,2.3359,1.2803,3.501,1.9233
				c-43.2861,21.7012-86.583,43.3789-129.8262,65.166c-2.4492,1.2344-4.082,0.1924-5.9795-0.75
				c-18.0361-8.9492-36.082-17.8799-54.1016-26.8623C773.3975,532.4385,749.1514,520.3018,724.8965,508.1826z"/>
			<path fill-rule="evenodd" clip-rule="evenodd" fill="#FEB301" d="M209.6909,592.4375
				c13.207-6.6738,26.3833-13.4102,39.6274-20.0098c29.041-14.4746,58.126-28.8594,87.1621-43.3418
				c3.1196-1.5566,5.9463-2.458,9.417-0.7246c42.5708,21.2695,85.1875,42.4473,127.791,63.6475
				c-0.5688,0.3467-1.1138,0.7393-1.7065,1.0352c-42.4087,21.1924-84.8359,42.3486-127.1978,63.6357
				c-2.6616,1.3369-4.5967,0.8086-6.9434-0.3613c-23.0747-11.5059-46.1973-22.915-69.2769-34.4102
				C248.9194,612.125,229.3135,602.2637,209.6909,592.4375z"/>
			<path fill-rule="evenodd" clip-rule="evenodd" fill="#FEB301" d="M380.7627,678.4316
				c7.9961-4.0781,15.959-8.2246,23.9946-12.2236c34.1211-16.9834,68.2925-33.8662,102.3613-50.9531
				c4.1401-2.0771,7.5278-2.1221,11.6958-0.0322c41.9609,21.0361,84.0088,41.8965,126.0322,62.8057
				c-43.1436,21.5967-86.3008,43.167-129.3975,64.8584c-2.5693,1.2939-4.3794,0.4863-6.4893-0.5625
				c-24.7393-12.291-49.502-24.5371-74.2295-36.8516C416.7192,696.502,398.7505,687.4482,380.7627,678.4316z"/>
			<path fill-rule="evenodd" clip-rule="evenodd" fill="#DBDBDB" d="M37.5664,506.8389
				c43.0898-21.4243,86.1904-42.8276,129.249-64.3149c3.3379-1.6655,6.0029-0.6138,8.9341,0.853
				c38.8735,19.4536,77.792,38.8174,116.6226,58.355c2.9819,1.5005,7.0693,1.3931,8.7002,5.2119
				c-0.1143,0.1211-0.2061,0.2871-0.3462,0.3569c-42.8423,21.4453-85.6943,42.873-128.5112,64.3691
				c-1.7417,0.875-3.0127,0.6523-4.6182-0.1475C124.2656,549.9365,80.9141,528.3906,37.5664,506.8389z"/>
			<path fill-rule="evenodd" clip-rule="evenodd" fill="#DBDBDB" d="M552.8789,593.2393c0.5312-1.8975,2.3105-2.2803,3.7549-2.999
				c41.1553-20.4434,82.334-40.8438,123.4648-61.3369c3.1523-1.5713,5.8291-1.5195,8.9492,0.0625
				c16.7832,8.5107,33.6221,16.915,50.4824,25.2725c23.5654,11.6816,47.1738,23.2773,70.7422,34.9521
				c1.8633,0.9229,4.2559,1.3311,4.8232,3.9092c-0.4072,0.2832-0.7861,0.623-1.2246,0.8418
				c-42.2705,21.1465-84.5576,42.2617-126.791,63.4814c-2.2852,1.1475-3.9346,0.752-5.9863-0.2744
				c-18.4551-9.2285-36.9609-18.3555-55.4297-27.5586C601.3916,617.4961,577.1396,605.3584,552.8789,593.2393z"/>
			<path fill-rule="evenodd" clip-rule="evenodd" fill="#DBDBDB" d="M552.9678,421.6807c0.7393-1.958,2.6328-2.437,4.2383-3.2339
				c40.6816-20.2021,81.3809-40.3672,122.043-60.6079c3.6787-1.8315,6.8047-1.9917,10.6865-0.0005
				c20.2852,10.4038,40.7178,20.52,61.1406,30.6533c19.5186,9.6851,39.0918,19.2612,58.6318,28.9048
				c2.0312,1.0024,4.5723,1.603,4.3848,4.7051c-0.7002,0.438-1.3701,0.937-2.1064,1.3052
				c-41.5107,20.7485-83.0449,41.4512-124.502,62.3076c-2.6787,1.3481-4.5605,0.8345-6.8926-0.3257
				c-34.8457-17.3359-69.7256-34.603-104.5762-51.9297C568.291,429.6182,560.6484,425.6108,552.9678,421.6807z"/>
			<path fill-rule="evenodd" clip-rule="evenodd" fill="#FEB301" d="M380.9326,506.9189
				c36.3398-18.1128,72.6787-36.2275,109.021-54.3354c6.4072-3.1924,12.8721-6.2725,19.2231-9.5718
				c2.9199-1.5161,5.5273-1.5571,8.499-0.0762c42.0049,20.936,84.0439,41.8027,126.0684,62.6968
				c0.4385,0.2183,0.8027,0.585,1.1992,0.8823c-0.248,0.2217-0.459,0.5127-0.7441,0.6558
				c-42.8613,21.4487-85.7344,42.8726-128.5703,64.3706c-1.9023,0.9551-3.3237,0.7168-5.0874-0.1621
				C467.3521,549.8652,424.1401,528.3965,380.9326,506.9189z"/>
			<path fill-rule="evenodd" clip-rule="evenodd" fill="#D9D9D9" d="M477.3745,423.4512c3.6079,2.8198,3.7612,5.6782,0.2871,8.1699
				c-4.7622,3.4155-10.1865,5.645-15.4326,8.1445c-38.1709,18.1821-75.7266,37.6021-113.5542,56.4727
				c-4.8706,2.4297-8.77,2.3306-13.5566-0.1064c-25.5142-12.9912-51.1567-25.7324-76.7979-38.4727
				c-16.6895-8.2925-33.4731-16.396-50.1714-24.6719c-4.8843-2.4209-5.4858-5.0645-2.2964-8.5146
				c1.144,1.8062,3.0757,2.4771,4.8569,3.3608C253.2354,448.9307,295.7749,470,338.2559,491.187
				c2.5527,1.2729,4.4355,1.1631,6.9146-0.0811c42.4224-21.2954,84.896-42.4883,127.3457-63.7305
				C474.3945,426.4355,476.7212,425.9507,477.3745,423.4512z"/>
			<path fill-rule="evenodd" clip-rule="evenodd" fill="#D9D9D9" d="M820.1377,595.4727c3.4346,2.1973,3.6299,5.1943,0.3701,7.6348
				c-1.1826,0.8857-2.6221,1.4355-3.9609,2.1055c-36.7734,18.3789-73.541,36.7686-110.333,55.1113
				c-6.248,3.1152-12.6289,5.9619-18.8867,9.0586c-1.9805,0.9785-3.6885,1.0254-5.6406-0.0127
				c-3.8193-2.0322-7.7178-3.915-11.5947-5.8379c-39.6533-19.6719-79.3135-39.3291-118.959-59.0166
				c-5.7559-2.8594-6.3389-5.1357-2.5283-9.0635c0.7959,2.6416,3.3115,3.1162,5.3369,4.1221
				c42.208,20.9707,84.4434,41.8857,126.625,62.9102c2.6318,1.3115,4.6455,1.459,7.3682,0.0918
				c42.416-21.3203,84.8975-42.5107,127.3613-63.7363C817.0684,597.9531,819.0264,597.3174,820.1377,595.4727z"/>
			<path fill-rule="evenodd" clip-rule="evenodd" fill="#D9D9D9" d="M820.1504,423.4692c3.6426,2.1528,3.7412,4.7744,0.7744,7.5068
				c-1.1943,1.0996-2.7334,1.8735-4.208,2.6113c-37.5205,18.7729-75.0469,37.5347-112.5908,56.2603
				c-5.207,2.5967-10.5645,4.8921-15.7529,7.5215c-2.8213,1.4297-5.3359,1.2764-8.0479-0.1836
				c-3.6631-1.9727-7.4229-3.7676-11.1514-5.6172c-38.9199-19.3071-77.8408-38.6118-116.7646-57.9097
				c-2.2412-1.1108-4.5117-2.0854-5.6338-4.6328c-0.9951-2.2607-0.8506-3.8652,1.8223-4.5664
				c0.873,1.561,2.4307,2.207,3.9229,2.9478c42.9688,21.3125,85.9443,42.6094,128.877,63.9946
				c2.207,1.0991,3.8623,1.0034,6.0137-0.0752c42.8809-21.5093,85.8008-42.9424,128.7148-64.3857
				C817.7676,426.1206,819.5146,425.4448,820.1504,423.4692z"/>
			<path fill-rule="evenodd" clip-rule="evenodd" fill="#F8B308" d="M477.3418,593.959c3.9438,4.0654,3.5713,6.9502-1.5527,9.5898
				c-7.9858,4.1133-16.0742,8.0273-24.1182,12.0273c-34.5464,17.1768-69.125,34.291-103.5981,51.6133
				c-4.2876,2.1543-7.7793,2.3086-12.1323,0.127c-42.0815-21.084-84.2637-41.9688-126.4043-62.9355
				c-6.3115-3.1406-7.0698-5.377-3.6191-9.9678c0.2627,2.6689,2.5,3.2988,4.4111,4.2471
				c42.6455,21.1611,85.3013,42.3018,127.9185,63.5205c2.2861,1.1377,4.0854,1.3564,6.4824,0.1523
				c42.8457-21.5127,85.7407-42.9268,128.6245-64.3643C475.1313,597.0801,477.1196,596.3975,477.3418,593.959z"/>
			<path fill-rule="evenodd" clip-rule="evenodd" fill="#F8B308" d="M648.377,337.4424c4.2227,4.2939,3.6426,7.064-2.3389,10.0503
				c-21.6064,10.7866-43.2441,21.5098-64.8682,32.2583c-20.8711,10.3745-41.7754,20.6841-62.5801,31.1885
				c-3.7549,1.8955-6.9409,2.1406-10.8013,0.209c-42.4404-21.2329-84.9531-42.3228-127.4346-63.4741
				c-6.0439-3.0093-6.7256-5.0796-3.4136-9.6689c0.4116,2.3125,2.2935,3.0874,4.0996,3.9824
				c42.9453,21.2881,85.8926,42.5732,128.8086,63.9204c1.9688,0.9795,3.5107,1.1421,5.5645,0.1128
				c43.1445-21.6279,86.3291-43.1777,129.5049-64.7437C646.5703,340.4521,648.2822,339.6753,648.377,337.4424z"/>
			<path fill-rule="evenodd" clip-rule="evenodd" fill="#F8B308" d="M649.0449,508.5674c3.9492,4.3188,3.4434,6.9785-2.2188,9.8164
				c-16.207,8.123-32.4717,16.1279-48.707,24.1934c-26.0742,12.9531-52.1836,25.8379-78.1758,38.9531
				c-4.4277,2.2344-8.0874,2.4043-12.625,0.1299c-42.085-21.0957-84.2812-41.9688-126.4307-62.9355
				c-6.2993-3.1348-6.9258-5.2832-3.207-10.0459c-0.0879,2.8071,2.1758,3.4819,4.0791,4.4268
				c42.8193,21.2383,85.6523,42.4492,128.4438,63.7441c2.1733,1.082,3.8345,1.123,6.0239,0.0254
				c43.0264-21.5742,86.0947-43.0664,129.1553-64.5708C647.041,511.4766,648.7266,510.6978,649.0449,508.5674z"/>
			<path fill-rule="evenodd" clip-rule="evenodd" fill="#323333" d="M37.5664,506.8389
				c43.3477,21.5518,86.6992,43.0977,130.0303,64.6836c1.6055,0.7998,2.8765,1.0225,4.6182,0.1475
				c42.8169-21.4961,85.6689-42.9238,128.5112-64.3691c0.1401-0.0698,0.2319-0.2358,0.3462-0.3569
				c2.6392-1.0649,4.2637-0.2314,4.832,2.5806c-1.3184,1.8735-3.4146,2.5864-5.3354,3.5459
				c-33.9258,16.959-67.8569,33.9072-101.7808,50.8691c-1.3311,0.666-2.605,1.4453-3.9053,2.1719
				c-0.709,0.3848-1.418,0.7695-2.127,1.1533c0,0,0.0874-0.085,0.0874-0.084c-0.6958,0.3604-1.3911,0.7197-2.0864,1.0791
				c0,0,0.0864-0.0801,0.0864-0.0791c-0.6958,0.3604-1.3911,0.7197-2.0864,1.0791c0,0,0.0864-0.0801,0.0864-0.0791
				c-0.6958,0.3604-1.3911,0.7197-2.0864,1.0791c0,0,0.105-0.0801,0.105-0.0781c-0.7979,0.3945-1.5952,0.79-2.3926,1.1846
				c-2.5288,1.2471-5.0581,2.4941-7.5874,3.7412c-0.7095,0.3848-1.4189,0.7686-2.1289,1.1523c0,0,0.0859-0.085,0.0859-0.084
				c-0.6953,0.3594-1.3901,0.7188-2.085,1.0781c0,0,0.1089-0.0635,0.1084-0.0625c-0.5361,0.3555-1.0718,0.709-1.6069,1.0625
				c0,0-0.1699-0.1973-0.1704-0.1963c-0.7271-0.0166-1.4536-0.0332-2.1802-0.0508c-22.8833-11.4531-45.751-22.9365-68.6538-34.3506
				c-20.2319-10.082-40.5088-20.0752-60.7461-30.1475c-1.7646-0.8784-3.3823-2.0513-5.0684-3.0874
				C34.2993,508.1958,35.3672,507.0234,37.5664,506.8389z"/>
			<path fill-rule="evenodd" clip-rule="evenodd" fill="#323333" d="M649.0449,508.5674c-0.3184,2.1304-2.0039,2.9092-3.6621,3.7368
				c-43.0605,21.5044-86.1289,42.9966-129.1553,64.5708c-2.1895,1.0977-3.8506,1.0566-6.0239-0.0254
				c-42.7915-21.2949-85.6245-42.5059-128.4438-63.7441c-1.9033-0.9448-4.167-1.6196-4.0791-4.4268
				c0.6406-1.4043,1.8169-1.8213,3.252-1.7598c43.2075,21.4775,86.4194,42.9463,129.6089,64.46
				c1.7637,0.8789,3.1851,1.1172,5.0874,0.1621c42.8359-21.498,85.709-42.9219,128.5703-64.3706
				c0.2852-0.1431,0.4961-0.4341,0.7441-0.6558C646.7832,506.2598,648.3057,506.6323,649.0449,508.5674z"/>
			<path fill-rule="evenodd" clip-rule="evenodd" fill="#323333" d="M820.1504,423.4692c-0.6357,1.9756-2.3828,2.6514-4.0244,3.4717
				c-42.9141,21.4434-85.834,42.8765-128.7148,64.3857c-2.1514,1.0786-3.8066,1.1743-6.0137,0.0752
				c-42.9326-21.3853-85.9082-42.6821-128.877-63.9946c-1.4922-0.7407-3.0498-1.3867-3.9229-2.9478
				c0.3457-2.6738,1.9941-3.2979,4.3701-2.7788c7.6807,3.9302,15.3232,7.9375,23.0479,11.7783
				c34.8506,17.3267,69.7305,34.5938,104.5762,51.9297c2.332,1.1602,4.2139,1.6738,6.8926,0.3257
				c41.457-20.8564,82.9912-41.5591,124.502-62.3076c0.7363-0.3682,1.4062-0.8672,2.1064-1.3052
				C816.4258,421.168,818.8594,419.7876,820.1504,423.4692z"/>
			<path fill-rule="evenodd" clip-rule="evenodd" fill="#323333" d="M820.1377,595.4727c-1.1113,1.8447-3.0693,2.4805-4.8418,3.3672
				c-42.4639,21.2256-84.9453,42.416-127.3613,63.7363c-2.7227,1.3672-4.7363,1.2197-7.3682-0.0918
				c-42.1816-21.0244-84.417-41.9395-126.625-62.9102c-2.0254-1.0059-4.541-1.4805-5.3369-4.1221
				c0.6201-2.292,2.2324-2.667,4.2744-2.2129c24.2607,12.1191,48.5127,24.2568,72.7852,36.3506
				c18.4688,9.2031,36.9746,18.3301,55.4297,27.5586c2.0518,1.0264,3.7012,1.4219,5.9863,0.2744
				c42.2334-21.2197,84.5205-42.335,126.791-63.4814c0.4385-0.2188,0.8174-0.5586,1.2246-0.8418
				C817.6729,591.9854,819.583,592.2891,820.1377,595.4727z"/>
			<path fill-rule="evenodd" clip-rule="evenodd" fill="#323333" d="M380.7627,678.4316
				c17.9878,9.0166,35.9565,18.0703,53.9678,27.041c24.7275,12.3145,49.4902,24.5605,74.2295,36.8516
				c2.1099,1.0488,3.9199,1.8564,6.4893,0.5625c43.0967-21.6914,86.2539-43.2617,129.3975-64.8584
				c1.5986-0.1436,2.9619,0.1582,3.5762,1.8809c-0.1943,2.1494-1.7607,2.9883-3.4658,3.8398
				c-43.1963,21.5596-86.3877,43.1299-129.5391,64.7783c-2.0645,1.0352-3.6357,0.8643-5.582-0.1035
				c-42.9326-21.3477-85.8896-42.6465-128.8428-63.9531c-1.7905-0.8887-3.7334-1.6201-4.0161-4.0146
				C377.7085,678.7891,379.0757,678.3125,380.7627,678.4316z"/>
			<path fill-rule="evenodd" clip-rule="evenodd" fill="#323333" d="M648.377,337.4424c-0.0947,2.2329-1.8066,3.0098-3.459,3.835
				c-43.1758,21.5659-86.3604,43.1157-129.5049,64.7437c-2.0537,1.0293-3.5957,0.8667-5.5645-0.1128
				c-42.916-21.3472-85.8633-42.6323-128.8086-63.9204c-1.8062-0.895-3.688-1.6699-4.0996-3.9824
				c0.7393-1.498,1.9692-2.1606,3.6094-2.124c27.8315,13.8755,55.6587,27.7622,83.4985,41.623
				c15.0454,7.4907,30.126,14.9106,45.1548,22.4341c2.1709,1.0869,3.9434,1.6396,6.4336,0.3882
				c42.2109-21.2188,84.4834-42.3159,126.7354-63.4541c0.7285-0.3647,1.3721-0.8994,2.0557-1.3545
				C646.1152,335.4004,647.7539,335.3794,648.377,337.4424z"/>
			<path fill-rule="evenodd" clip-rule="evenodd" fill="#323333" d="M724.8965,508.1826
				c24.2549,12.1191,48.501,24.2559,72.7676,36.3516c18.0195,8.9824,36.0654,17.9131,54.1016,26.8623
				c1.8975,0.9424,3.5303,1.9844,5.9795,0.75c43.2432-21.7871,86.54-43.4648,129.8262-65.166
				c1.8594-0.126,3.1387,0.5938,3.6182,2.4805c-0.7051,2.4478-2.999,2.9707-4.8789,3.9111
				c-42.5186,21.2744-85.0645,42.4941-127.5449,63.8447c-2.5811,1.2969-4.4473,1.1035-6.9033-0.123
				c-13.3682-6.6797-26.8291-13.1738-40.2598-19.7324c-0.8281-0.4551-1.6553-0.9102-2.4824-1.3662
				c-27.916-13.9023-55.8369-27.7959-83.7402-41.7256c-2.0439-1.0195-4.4053-1.6377-5.6953-3.8125
				C720.2666,507.0532,722.3682,507.1284,724.8965,508.1826z"/>
			<path fill-rule="evenodd" clip-rule="evenodd" fill="#323333" d="M477.3418,593.959c-0.2222,2.4385-2.2104,3.1211-3.9883,4.0098
				c-42.8838,21.4375-85.7788,42.8516-128.6245,64.3643c-2.397,1.2041-4.1963,0.9854-6.4824-0.1523
				c-42.6172-21.2188-85.2729-42.3594-127.9185-63.5205c-1.9111-0.9482-4.1484-1.5781-4.4111-4.2471
				c0.7256-1.6758,2.1196-2.0752,3.7739-1.9756c19.6226,9.8262,39.2285,19.6875,58.873,29.4707
				c23.0796,11.4951,46.2021,22.9043,69.2769,34.4102c2.3467,1.1699,4.2817,1.6982,6.9434,0.3613
				c42.3618-21.2871,84.7891-42.4434,127.1978-63.6357c0.5928-0.2959,1.1377-0.6885,1.7065-1.0352
				C475.3408,591.8477,476.7324,592.1699,477.3418,593.959z"/>
			<path fill-rule="evenodd" clip-rule="evenodd" fill="#323333" d="M477.3745,423.4512c-0.6533,2.4995-2.98,2.9844-4.8584,3.9243
				c-42.4497,21.2422-84.9233,42.4351-127.3457,63.7305c-2.479,1.2441-4.3618,1.354-6.9146,0.0811
				c-42.481-21.187-85.0205-42.2563-127.5464-63.3535c-1.7812-0.8838-3.7129-1.5547-4.8569-3.3608
				c0.5825-3.1313,2.478-3.4785,5.0537-2.3843c24.3931,12.1851,48.7769,24.3877,73.1812,36.5488
				c18.0161,8.978,36.0693,17.8804,54.0752,26.8789c2.1851,1.0918,3.9409,1.5435,6.4346,0.2896
				c41.9102-21.0781,83.8896-42.0186,125.8467-63.0034c0.5728-0.2861,1.0576-0.748,1.5835-1.1279
				C474.209,421.0649,476.4849,420.1719,477.3745,423.4512z"/>
		</g>
	</g>
</g>
<g id="Layer_1">
	<g>
		<linearGradient id="SVGID_2_" gradientUnits="userSpaceOnUse" x1="831.1201" y1="302.4727" x2="831.1201" y2="82.2598">
			<stop  offset="0.7393" style="stop-color:#181818"/>
			<stop  offset="1" style="stop-color:#262626"/>
		</linearGradient>
		<circle fill-rule="evenodd" clip-rule="evenodd" fill="url(#SVGID_2_)" cx="831.1201" cy="192.3662" r="110.1064"/>
	</g>
	<g id="RhdEu0_1_">
		<g>
			<path fill-rule="evenodd" clip-rule="evenodd" fill="#8B48FE" d="M827.5723,78.7183c17.4619-0.8643,34.1924,2.0757,50.04,9.6133
				c-0.0283,10.0215-0.0566,20.043-0.084,30.0649c-6.7852,0.0093-13.5723,0.1284-20.3545-0.019
				c-3.4229-0.0742-4.7305,1.2437-4.6631,4.6646c0.1357,6.7817-0.0029,13.5684-0.0283,20.3535
				c-8.3076,0.0103-16.6152,0.021-24.9229,0.0312c-0.002-6.7891-0.1123-13.5806,0.0381-20.3657
				c0.0762-3.4175-1.2314-4.7544-4.6611-4.6724c-6.7852,0.1621-13.5762,0.0649-20.3652,0.0752
				c-8.3359-0.0117-16.6709-0.0234-25.0068-0.0356c-0.0244-8.5889-0.0488-17.1777-0.0732-25.7661
				c7.8516-4.6333,16.167-8.1133,25.0898-10.083c-0.002,1.665,0.1689,3.3521-0.0391,4.9907
				c-0.5908,4.6567,1.4111,6.23,5.9629,5.9263c4.8076-0.3213,9.6572-0.2085,14.4785-0.0327
				c3.5166,0.1279,4.7764-1.3813,4.6133-4.7573C827.4355,85.3843,827.5684,82.0479,827.5723,78.7183z"/>
			<path fill-rule="evenodd" clip-rule="evenodd" fill="#369FFD" d="M776.4805,290.585
				c-22.8926-12.6191-39.21-31.0615-48.9717-55.3057c0.0244-5.625,0.0488-11.251,0.0732-16.8774l-0.0488,0.0488
				c6.9766-0.0156,13.9541-0.1138,20.9277-0.0093c3.0029,0.0454,4.1426-1.1445,4.0938-4.124
				c-0.1162-6.9741-0.0342-13.9517-0.0322-20.9277c8.3496,0.0361,16.7002,0.0718,25.0498,0.1074
				c0.0039,8.3203,0.0078,16.6411,0.0117,24.9619c0.0127,8.3208,0.0264,16.6416,0.04,24.9624
				c-0.0215,13.6377-0.0283,27.2754-0.0791,40.9131C777.5371,286.4609,777.9678,288.6958,776.4805,290.585z"/>
			<path fill-rule="evenodd" clip-rule="evenodd" fill="#3D73FE" d="M776.4805,290.585c1.4873-1.8892,1.0566-4.124,1.0645-6.2505
				c0.0508-13.6377,0.0576-27.2754,0.0781-40.9131c8.3125,0.002,16.627,0.0034,24.9404,0.0054
				c-0.002,14.938,0.0869,29.877-0.0684,44.8135c-0.04,3.8408,1.1904,5.3779,5.1465,5.2373
				c6.6309-0.2349,13.2764-0.0698,19.916-0.0732c8.333,0.0137,16.666,0.0273,25,0.041c0.002,3.2896,0.0049,6.5796,0.0068,9.8696
				C825.627,308.4902,800.2861,304.125,776.4805,290.585z"/>
			<path fill-rule="evenodd" clip-rule="evenodd" fill="#7C59FE" d="M777.4912,92.6621c0.0244,8.5884,0.0488,17.1772,0.0732,25.7661
				c0.0049,8.3169,0.0088,16.6343,0.0137,24.9517c-8.3252,0.0049-16.6494,0.0093-24.9736,0.0137
				c-0.041-8.3491-0.083-16.6982-0.125-25.0474c-0.001-2.3188-0.002-4.6372-0.0039-6.9561
				C759.6543,103.5981,768.1357,97.5469,777.4912,92.6621z"/>
			<path fill-rule="evenodd" clip-rule="evenodd" fill="#A949FD" d="M902.6143,103.375
				c21.3223,16.7617,34.7432,38.4053,40.1562,64.9961c-5.0488-0.0088-10.0986-0.0171-15.1484-0.0254
				c-0.0234-6.8252-0.1406-13.6523-0.0254-20.4761c0.0527-3.1743-1.0928-4.5562-4.3584-4.4492
				c-4.6572,0.1533-9.3223,0.04-13.9834,0.0303c-6.7129-0.0146-6.7148-0.0186-6.7393-6.5083
				c-0.0234-6.1597-0.042-12.3198-0.0635-18.4795C902.5059,113.4336,902.5596,108.4043,902.6143,103.375z"/>
			<path fill-rule="evenodd" clip-rule="evenodd" fill="#6C82FD" d="M752.4795,118.3462c0.042,8.3491,0.084,16.6982,0.125,25.0479
				c-0.0225,8.3525-0.0439,16.7051-0.0654,25.0571c-8.3096-0.0229-16.6191-0.0459-24.9297-0.0684
				c-0.0312-6.5918-0.0625-13.1841-0.0938-19.7759c4.0615-11.3032,10.3818-21.2339,18.334-30.1714
				C748.0586,118.4062,750.2695,118.376,752.4795,118.3462z"/>
			<path fill-rule="evenodd" clip-rule="evenodd" fill="#8453FE" d="M915.5498,268.4482
				c-9.3994,10.8213-20.5898,19.2397-33.6807,25.1079c-1.4336-0.043-2.8682-0.0854-4.3018-0.1284
				c0.0225-8.3252,0.0439-16.6509,0.0654-24.9766c8.3096-0.0078,16.6201-0.0146,24.9297-0.022
				C906.8916,268.4355,911.2207,268.4419,915.5498,268.4482z"/>
			<path fill-rule="evenodd" clip-rule="evenodd" fill="#8A65FE" d="M902.6143,103.375
				c-0.0547,5.0293-0.1084,10.0586-0.1611,15.0879c-8.2754,0.0093-16.5527,0.0195-24.8301,0.0298l-0.0957-0.0962
				c0.0283-10.022,0.0566-20.0435,0.085-30.0649C886.8672,91.8149,895.1436,96.9263,902.6143,103.375z"/>
			<path fill-rule="evenodd" clip-rule="evenodd" fill="#7C59FE" d="M915.5498,268.4482c-4.3291-0.0063-8.6582-0.0127-12.9873-0.019
				c0.0195-8.3311,0.0391-16.6626,0.0576-24.9937c8.291-0.001,16.582-0.0015,24.874-0.002
				c1.7598,0.0659,3.5205,0.1318,5.2812,0.1978C928.5586,252.9624,922.6963,261.1514,915.5498,268.4482z"/>
			<path fill-rule="evenodd" clip-rule="evenodd" fill="#369FFD" d="M727.5156,148.6069
				c0.0312,6.5918,0.0625,13.1841,0.0938,19.7764c0.0107,8.3809,0.0225,16.7617,0.0332,25.1426
				c-0.0361,8.3081-0.0723,16.6167-0.1094,24.9248c0,0,0.0488-0.0488,0.0488-0.0483c-1.915,0.019-3.8311,0.0376-5.7461,0.0566
				C716.0889,194.5537,717.6826,171.2451,727.5156,148.6069z"/>
			<path fill-rule="evenodd" clip-rule="evenodd" fill="#736BFE" d="M927.6221,168.3452
				c5.0498,0.0088,10.0996,0.0171,15.1484,0.0259c2.2764,8.1997,3.04,16.5562,2.5947,25.0376
				c-5.9414,0.0171-11.8828,0.0342-17.8242,0.0508c0-0.0005,0.002-0.0723,0.002-0.0723
				c-0.0166-8.2788-0.0332-16.5571-0.0498-24.8354L927.6221,168.3452z"/>
			<path fill-rule="evenodd" clip-rule="evenodd" fill="#7C59FE" d="M927.54,193.46c5.9424-0.0171,11.8838-0.0342,17.8252-0.0513
				c0.2168,8.5044-1.0322,16.8257-3.1387,25.0386c-4.8906,0.0015-9.7812,0.0024-14.6719,0.0039
				C927.5498,210.1206,927.5449,201.79,927.54,193.46z"/>
			<path fill-rule="evenodd" clip-rule="evenodd" fill="#7C59FE" d="M827.5723,78.7183c-0.0039,3.3296-0.1367,6.666,0.0244,9.9878
				c0.1631,3.376-1.0967,4.8853-4.6133,4.7573c-4.8213-0.1758-9.6709-0.2886-14.4785,0.0327
				c-4.5518,0.3037-6.5537-1.2695-5.9629-5.9263c0.208-1.6387,0.0371-3.3257,0.0391-4.9907
				C810.7129,80.0049,819.0508,78.769,827.5723,78.7183z"/>
			<path fill-rule="evenodd" clip-rule="evenodd" fill="#6C82FD" d="M927.5547,218.4512c4.8906-0.0015,9.7812-0.0024,14.6719-0.0039
				c-2.0049,8.8237-4.8135,17.3457-9.4502,25.1831c-1.7617-0.0649-3.5225-0.1309-5.2822-0.1968
				C927.5146,235.106,927.5352,226.7788,927.5547,218.4512z"/>
			<path fill-rule="evenodd" clip-rule="evenodd" fill="#736BFE" d="M877.5674,293.4277c1.4336,0.043,2.8682,0.0854,4.3018,0.1284
				c-9.1582,5.0869-18.959,8.2397-29.3047,9.7588c-0.002-3.29-0.0049-6.5801-0.0068-9.8701
				C860.8945,293.439,869.2305,293.4336,877.5674,293.4277z"/>
			<path fill-rule="evenodd" clip-rule="evenodd" fill="#6C82FD" d="M721.8359,218.459c1.915-0.019,3.8311-0.0376,5.7461-0.0566
				c-0.0244,5.626-0.0488,11.252-0.0732,16.877C724.7227,229.9731,723.0752,224.2852,721.8359,218.459z"/>
			<path fill-rule="evenodd" clip-rule="evenodd" fill="#448BFE" d="M752.4795,118.3462c-2.21,0.0298-4.4209,0.0601-6.6299,0.0894
				c1.8232-2.7129,3.9766-5.1128,6.627-7.0459C752.4775,113.709,752.4785,116.0273,752.4795,118.3462z"/>
			<path fill-rule="evenodd" clip-rule="evenodd" fill="#8453FE" d="M827.5596,143.4268c8.3076-0.0103,16.6152-0.021,24.9229-0.0312
				c0,0,0.1426,0.0571,0.1416,0.0566c-0.0322,8.3213-0.0645,16.6426-0.0957,24.9639c-16.6328-0.0034-33.2656-0.0073-49.8994-0.0112
				c-0.0303-8.3188-0.0605-16.6387-0.0908-24.958l0.0234-0.0239C810.8945,143.4243,819.2275,143.4253,827.5596,143.4268z"/>
			<path fill-rule="evenodd" clip-rule="evenodd" fill="#8A65FE" d="M852.4824,143.3955
				c0.0254-6.7852,0.1641-13.5718,0.0283-20.3535c-0.0674-3.4209,1.2402-4.7388,4.6631-4.6646
				c6.7822,0.1475,13.5693,0.0283,20.3545,0.019c-0.001,0,0.0947,0.0962,0.0938,0.0952
				c-0.0225,8.3228-0.0449,16.6465-0.0664,24.9702c-8.3105-0.0034-16.6201-0.0063-24.9307-0.0093L852.4824,143.3955z"/>
			<path fill-rule="evenodd" clip-rule="evenodd" fill="#8453FE" d="M777.5781,143.3794
				c-0.0049-8.3169-0.0088-16.6343-0.0137-24.9512c8.3359,0.0122,16.6709,0.0239,25.0068,0.0352
				c-0.0039,8.3198-0.0068,16.6396-0.0098,24.9595c0,0-0.0234,0.0239-0.0234,0.0234c-8.3271,0.0063-16.6553,0.0127-24.9824,0.019
				L777.5781,143.3794z"/>
			<path fill-rule="evenodd" clip-rule="evenodd" fill="#7C59FE" d="M802.5615,143.4229
				c0.0029-8.3198,0.0059-16.6396,0.0098-24.9595c6.7891-0.0098,13.5801,0.0874,20.3652-0.0747
				c3.4297-0.082,4.7373,1.2549,4.6611,4.6724c-0.1504,6.7852-0.04,13.5767-0.0381,20.3657
				C819.2275,143.4253,810.8945,143.4243,802.5615,143.4229z"/>
			<path fill-rule="evenodd" clip-rule="evenodd" fill="#736BFE" d="M752.5381,168.4512
				c0.0225-8.3521,0.0439-16.7046,0.0664-25.0571c8.3242-0.0049,16.6484-0.0093,24.9736-0.0142c0-0.0005-0.0225,0.0854-0.0225,0.085
				c0.002,8.3203,0.0029,16.6406,0.0039,24.9614c-0.0215,8.2881-0.0439,16.5762-0.0664,24.8638l0.0791,0.2075
				c-8.3496-0.0361-16.7002-0.0718-25.0498-0.1079c0,0.0005,0.0518,0.0537,0.0518,0.0537
				C752.5625,185.1128,752.5508,176.7817,752.5381,168.4512z"/>
			<path fill-rule="evenodd" clip-rule="evenodd" fill="#567EFE" d="M802.5635,243.4268
				c-8.3135-0.002-16.6279-0.0034-24.9404-0.0054c-0.0127-8.3208-0.0264-16.6416-0.0391-24.9629
				c8.3184-0.0225,16.6377-0.0444,24.957-0.0669l0.0518,0.0176c-0.0117,8.3413-0.0234,16.6826-0.0352,25.0234L802.5635,243.4268z"/>
			<path fill-rule="evenodd" clip-rule="evenodd" fill="#4EA0FE" d="M802.541,218.3916c-8.3193,0.0225-16.6387,0.0444-24.957,0.0669
				c-0.0039-8.3203-0.0078-16.6411-0.0117-24.9614c0,0.0005-0.0791-0.207-0.0781-0.2056
				c8.3369,0.0664,16.6738,0.1318,25.0098,0.1973C802.5166,201.79,802.5293,210.0908,802.541,218.3916z"/>
			<path fill-rule="evenodd" clip-rule="evenodd" fill="#736BFE" d="M727.5332,218.4507
				c0.0371-8.3081,0.0732-16.6167,0.1094-24.9258c8.3096-0.0273,16.6211-0.0542,24.9316-0.0815c0,0-0.0518-0.0532-0.0518-0.0537
				c-0.002,6.9761-0.084,13.9536,0.0322,20.9277c0.0488,2.9795-1.0908,4.1694-4.0938,4.124
				C741.4873,218.3369,734.5098,218.4351,727.5332,218.4507z"/>
			<path fill-rule="evenodd" clip-rule="evenodd" fill="#448BFE" d="M827.5576,293.4043
				c-6.6396,0.0034-13.2852-0.1616-19.916,0.0732c-3.9561,0.1406-5.1865-1.3965-5.1465-5.2373
				c0.1553-14.9365,0.0664-29.8755,0.0684-44.8135l-0.0059,0.0059c8.3213-0.0029,16.6426-0.0063,24.9639-0.0093
				c8.3447,0.0059,16.6895,0.0112,25.0342,0.0171c0.0166,8.3252,0.0342,16.6499,0.0518,24.9751
				c-6.7939,0.0059-13.5908,0.1187-20.3818-0.0278c-3.3926-0.0732-4.7803,1.1729-4.7012,4.6348
				C827.6807,279.813,827.5625,286.6099,827.5576,293.4043z"/>
			<path fill-rule="evenodd" clip-rule="evenodd" fill="#567EFE" d="M827.5576,293.4043c0.0049-6.7944,0.123-13.5913-0.0332-20.3818
				c-0.0791-3.4619,1.3086-4.708,4.7012-4.6348c6.791,0.1465,13.5879,0.0337,20.3809,0.0278
				c8.2891,0.0083,16.5791,0.0166,24.8682,0.0249l0.1592,0.0107c-0.0225,8.3257-0.0439,16.6514-0.0664,24.9766
				c-8.3369,0.0059-16.6729,0.0112-25.0098,0.0171C844.2236,293.4316,835.8906,293.418,827.5576,293.4043z"/>
			<path fill-rule="evenodd" clip-rule="evenodd" fill="#8D80FE" d="M877.5557,143.4619
				c0.0215-8.3237,0.0439-16.6475,0.0664-24.9702c8.2783-0.0093,16.5557-0.0195,24.8311-0.0288
				c0.0205,6.1597,0.0391,12.3198,0.0625,18.4795c0.0244,6.4897,0.0264,6.4937,6.7393,6.5083
				c4.6611,0.0098,9.3262,0.123,13.9834-0.0303c3.2656-0.1069,4.4111,1.2749,4.3584,4.4492
				c-0.1152,6.8237,0.002,13.6509,0.0254,20.4761c0-0.0005-0.1289,0.2061-0.1279,0.2051
				c-8.3125-0.0415-16.626-0.0815-24.9385-0.1221c-8.334,0.001-16.667,0.0024-25,0.0034
				C877.5557,160.1084,877.5557,151.7852,877.5557,143.4619z"/>
			<path fill-rule="evenodd" clip-rule="evenodd" fill="#448BFE" d="M752.5742,193.4434
				c-8.3105,0.0273-16.6221,0.0542-24.9316,0.0815c-0.0107-8.3799-0.0225-16.7607-0.0332-25.1416
				c8.3105,0.022,16.6201,0.0449,24.9297,0.0679C752.5508,176.7817,752.5625,185.1128,752.5742,193.4434z"/>
			<path fill-rule="evenodd" clip-rule="evenodd" fill="#736BFE" d="M902.6211,243.4355
				c-0.0195,8.3311-0.0391,16.6626-0.0586,24.9937c-8.3096,0.0073-16.6201,0.0142-24.9297,0.022
				c0.001,0-0.1582-0.0107-0.1572-0.0112c0.0332-8.3389,0.0645-16.6782,0.0957-25.0171l-0.0166,0.0186
				c8.3174-0.0283,16.6348-0.0566,24.9521-0.0854L902.6211,243.4355z"/>
			<path fill-rule="evenodd" clip-rule="evenodd" fill="#8A65FE" d="M927.5547,218.4512c-0.0195,8.3276-0.04,16.6548-0.0605,24.9824
				c-8.292,0.0005-16.583,0.001-24.874,0.002c0.001,0-0.1133-0.0796-0.1133-0.0786c-0.002-8.2944-0.0039-16.5903-0.0059-24.8862
				c0.0156-8.3452,0.0322-16.6899,0.0479-25.0352l0.0195-0.019c8.3242-0.0098,16.6494-0.0195,24.9746-0.0293
				c0,0-0.002,0.0718-0.002,0.0723C927.5449,201.79,927.5498,210.1206,927.5547,218.4512z"/>
			<path fill-rule="evenodd" clip-rule="evenodd" fill="#6378FE" d="M927.543,193.3872
				c-8.3252,0.0098-16.6504,0.0195-24.9746,0.0293c-0.0049-8.3291-0.0088-16.6582-0.0127-24.9878
				c8.3125,0.0405,16.626,0.0806,24.9385,0.1221C927.5098,176.8301,927.5264,185.1084,927.543,193.3872z"/>
			<path fill-rule="evenodd" clip-rule="evenodd" fill="#736BFE" d="M802.541,218.3916
				c-0.0117-8.3008-0.0244-16.6016-0.0361-24.9033c0.0029-8.3569,0.0059-16.7134,0.0078-25.0698l0.1172-0.0137
				c16.6328,0.0039,33.2656,0.0078,49.8984,0.0117c0.001,0,0.0635-0.0156,0.0625-0.0151
				c-0.0215,8.3301-0.042,16.6602-0.0635,24.9902c-6.8027,0.0093-13.6094,0.1455-20.4072-0.0254
				c-3.4727-0.0869-4.6973,1.2397-4.6182,4.6631c0.1553,6.7988,0.0117,13.6045-0.0088,20.4072
				c-8.2998-0.0093-16.6006-0.0181-24.9004-0.0273L802.541,218.3916z"/>
			<path fill-rule="evenodd" clip-rule="evenodd" fill="#6C82FD" d="M877.5557,143.4619c0,8.3232,0,16.6465,0,24.9702l0.0068-0.0083
				c-8.3232-0.0073-16.6475-0.0151-24.9707-0.0229c0,0-0.0625,0.0156-0.0635,0.0156c0.0312-8.3218,0.0635-16.6431,0.0957-24.9644
				C860.9355,143.4556,869.2451,143.4585,877.5557,143.4619z"/>
			<path fill-rule="evenodd" clip-rule="evenodd" fill="#6378FE" d="M777.5596,168.4263c-0.001-8.3208-0.002-16.6411-0.0039-24.9614
				c8.3271-0.0059,16.6553-0.0122,24.9824-0.0186c0.0303,8.3198,0.0605,16.6396,0.0908,24.9585c0.001,0-0.1162,0.0137-0.1152,0.0137
				C794.1963,168.4209,785.8779,168.4238,777.5596,168.4263z"/>
			<path fill-rule="evenodd" clip-rule="evenodd" fill="#6C82FD" d="M777.5596,168.4263
				c8.3184-0.0024,16.6367-0.0054,24.9541-0.0078c-0.0029,8.3564-0.0059,16.7129-0.0088,25.0698
				c-8.3369-0.0649-16.6738-0.1304-25.0107-0.1968C777.5156,185.0024,777.5381,176.7144,777.5596,168.4263z"/>
			<path fill-rule="evenodd" clip-rule="evenodd" fill="#3D73FE" d="M802.5928,218.4092
				c8.2998,0.0093,16.6006,0.0181,24.9014,0.0273c0.0098,8.3286,0.0186,16.6577,0.0273,24.9868
				c-8.3213,0.0029-16.6426,0.0063-24.9639,0.0093C802.5693,235.0918,802.5811,226.7505,802.5928,218.4092z"/>
			<path fill-rule="evenodd" clip-rule="evenodd" fill="#4EA0FE" d="M827.5215,243.4233
				c-0.0088-8.3291-0.0176-16.6582-0.0273-24.9868c0.0195-6.8027,0.1631-13.6084,0.0078-20.4072
				c-0.0791-3.4233,1.1455-4.75,4.6182-4.6631c6.7979,0.1709,13.6045,0.0347,20.4082,0.0259l0.0127,0.0786
				c0.0117,6.7871,0.1416,13.5767-0.0137,20.3594c-0.0791,3.4414,1.2393,4.7188,4.6592,4.6401
				c6.7832-0.1562,13.5723-0.0352,20.3594-0.0283l-0.0029-0.0034c0.0039,8.3345,0.0078,16.6689,0.0117,25.0029l0.0166-0.0186
				c-8.3389,0.0059-16.6777,0.0117-25.0156,0.0176C844.2109,243.4346,835.8662,243.4292,827.5215,243.4233z"/>
			<path fill-rule="evenodd" clip-rule="evenodd" fill="#7A96FE" d="M852.5557,243.4404
				c8.3379-0.0059,16.6768-0.0117,25.0156-0.0176c-0.0312,8.3389-0.0625,16.6782-0.0957,25.0171
				c-8.29-0.0078-16.5801-0.0161-24.8691-0.0244C852.5898,260.0903,852.5723,251.7656,852.5557,243.4404z"/>
			<path fill-rule="evenodd" clip-rule="evenodd" fill="#8A65FE" d="M902.5557,168.4287
				c0.0039,8.3296,0.0078,16.6587,0.0127,24.9878c0,0-0.0195,0.019-0.0195,0.0186c-8.3154-0.0171-16.6309-0.0342-24.9473-0.0508
				c-0.0137-8.3198-0.0264-16.6401-0.0391-24.9604l-0.0068,0.0083C885.8887,168.4312,894.2217,168.4297,902.5557,168.4287z"/>
			<path fill-rule="evenodd" clip-rule="evenodd" fill="#7A96FE" d="M877.5547,243.4414
				c-0.0039-8.334-0.0078-16.6685-0.0117-25.0029c8.3193,0.0107,16.6387,0.0215,24.958,0.0322
				c0.002,8.2959,0.0039,16.5918,0.0059,24.8862C894.1895,243.3848,885.8721,243.4131,877.5547,243.4414z"/>
			<path fill-rule="evenodd" clip-rule="evenodd" fill="#8D80FE" d="M902.501,218.4707c-8.3193-0.0107-16.6387-0.0215-24.958-0.0322
				c0,0,0.0029,0.0034,0.0029,0.0029c-0.0029-8.3306-0.0068-16.6616-0.0098-24.9922l0.0654-0.0654
				c8.3164,0.0171,16.6318,0.0342,24.9473,0.0513C902.5332,201.7808,902.5166,210.1255,902.501,218.4707z"/>
			<path fill-rule="evenodd" clip-rule="evenodd" fill="#8D80FE" d="M877.5625,168.4238
				c0.0127,8.3203,0.0254,16.6406,0.0391,24.9604c0-0.0005-0.0654,0.0649-0.0654,0.0649
				c-8.332,0.0068-16.6641,0.0142-24.9951,0.0215l-0.0127-0.0786c0.0205-8.3306,0.041-16.6606,0.0625-24.9907
				C860.915,168.4087,869.2393,168.4165,877.5625,168.4238z"/>
			<path fill-rule="evenodd" clip-rule="evenodd" fill="#7A96FE" d="M852.541,193.4707c8.3311-0.0073,16.6631-0.0146,24.9951-0.0215
				c0.0029,8.3306,0.0068,16.6616,0.0098,24.9922c-6.7871-0.0063-13.5762-0.1274-20.3594,0.0288
				c-3.4199,0.0786-4.7383-1.1987-4.6592-4.6401C852.6826,207.0474,852.5527,200.2578,852.541,193.4707z"/>
		</g>
	</g>
	<g>
		<path fill-rule="evenodd" clip-rule="evenodd" fill="#FEFEFE" d="M902.1035,149.6147c-1.1641-1.9717-2.582-3.5957-1.5137-6.3604
			c2.6348-6.8184,0.6191-12.8594-4.4512-17.7324c-4.9609-4.7705-11.0137-6.1875-17.5332-3.6602
			c-2.5742,0.998-4.3164,0.1836-6.4629-0.959c-17.6152-9.3857-36.0645-12.6875-55.9512-8.8301
			c-43.4883,8.4355-72.9375,53.3965-64.4727,95.416c7.4492,36.9902,42.5723,68.5039,81.7305,65.7773
			c8.0547,0.8398,16.8223-0.5527,25.4473-3.5723C911.6309,251.2407,926.9941,191.7681,902.1035,149.6147z M852.5586,258.311
			c-27.9824,8.1309-52.8184,1.3145-72.0664-20.6172c-19.2539-21.9414-22.8828-47.5801-10.834-74.0498
			c11.9922-26.3447,33.8496-39.2256,62.6016-40.4814c11.4688,0.0273,22.1602,2.7578,32.2695,7.957
			c2.1152,1.0879,3.041,2.1758,2.752,4.9707c-1.1875,11.4414,8.1289,20.6445,19.4258,18.9238
			c3.7227-0.5674,4.6992,1.2168,6.0117,3.5332C914.2676,196.604,894.6387,246.0845,852.5586,258.311z"/>
		<path fill-rule="evenodd" clip-rule="evenodd" fill="#FEFEFE" d="M831.6836,146.8911
			c21.9746-0.0195,41.002,15.3457,45.1836,35.9414c4.3223,21.2969-6.7363,42.6582-26.3965,51.248
			c-3.0039,1.3125-4.4512,1.5176-5.5527-2.3926c-7.2051-25.5742-14.7031-51.0645-22.1328-76.5752
			c-2.1582-7.4053-2.1992-7.3984,5.5859-8.0312C829.6953,146.9741,831.0254,146.9282,831.6836,146.8911z"/>
		<path fill-rule="evenodd" clip-rule="evenodd" fill="#FBFBFB" d="M802.8945,158.2788
			c-2.8438,19.6221-5.5879,38.5537-8.3789,57.8076C783.2051,202.981,783.5938,173.4731,802.8945,158.2788z"/>
		<path fill-rule="evenodd" clip-rule="evenodd" fill="#FBFBFB" d="M827.7988,237.5142c-7.0957-0.7207-13.3105-2.9375-19.127-6.3633
			c-1.7363-1.0215-2.752-2.207-2.1582-4.4551c0.4805-1.8262,0.6953-3.5293,3.0098-4.0234
			c4.5547-0.9707,9.0996-2.0137,13.5996-3.2188c2.3516-0.6309,3.3965,0.2266,3.9395,2.3926
			c1.0508,4.1953,2.0742,8.4004,3.3203,12.5391C831.293,237.4185,830.0391,237.981,827.7988,237.5142z"/>
		<path fill-rule="evenodd" clip-rule="evenodd" fill="#F9F9F9" d="M815.2285,177.3364c2.2012,8.1738,4.3477,16.3652,6.6426,24.5137
			c0.6387,2.2637,0.043,3.1914-2.1992,3.9492c-10.9238,3.7012-10.9414,3.7656-9.7012-7.5801
			c0.541-4.9551,1.291-9.8867,1.9473-14.8301c1.7441-2.7734-0.2754-6.1328,1.1582-8.957
			C815.3711,174.4673,813.8965,176.8423,815.2285,177.3364z"/>
		<path fill-rule="evenodd" clip-rule="evenodd" fill="#D4D4D4" d="M815.2285,177.3364c-0.4902-0.5703-1.0273-1.6504-1.457-1.6094
			c-1.1367,0.1113-0.3438,1.2129-0.502,1.8633c-0.4727,1.9277,0.6016,4.209-1.3516,5.7988
			c-0.2637-3.9121,0.3301-7.7207,1.1934-11.9609C815.3125,173.2368,815.0977,175.3481,815.2285,177.3364z"/>
	</g>
</g>
<g id="Layer_4" display="none">
	<g id="tzMfsH_1_" display="inline">
		<g>
			<path fill-rule="evenodd" clip-rule="evenodd" fill="#8045FE" d="M700,1c33.333,0,66.667,0,100,0
				c0.001,8.3413,0.002,16.6831,0.002,25.0244c-0.0156,8.3442-0.0322,16.689-0.0488,25.0332
				c-8.3086-0.0127-16.6182-0.0249-24.9268-0.0376l-0.0352-0.04c0.0049-6.7891-0.1025-13.5811,0.0615-20.3667
				c0.083-3.4399-1.252-4.7256-4.6699-4.6455c-6.7852,0.1587-13.5771,0.0474-20.3662,0.0474
				c-6.6602-0.0024-13.3213,0.082-19.9785-0.042c-3.6113-0.0674-5.1309,1.4355-5.0654,5.0552
				c0.1191,6.6572,0.0283,13.3184,0.0254,19.978c-8.3242-0.0078-16.6475-0.0156-24.9707-0.0234
				c-0.0107-8.3359-0.0215-16.6724-0.0322-25.0088C699.9971,17.6494,699.998,9.3247,700,1z"/>
			<path fill-rule="evenodd" clip-rule="evenodd" fill="#8131FD" d="M1025,428c-0.7754-0.5854-1.6328-1.0879-2.3125-1.7676
				c-23.7529-23.75-47.4902-47.5156-71.2188-71.2896c-0.5742-0.5752-1.0234-1.2749-1.5303-1.916
				c0.7988-2.3032,2.7734-2.0083,4.5654-2.0181c5.2998-0.0288,10.6045-0.1431,15.8994,0.0283
				c3.4492,0.1118,4.7207-1.2603,4.6416-4.6729c-0.1572-6.7871-0.0459-13.5811-0.0449-20.3721
				c8.332,0.0024,16.6631,0.0044,24.9951,0.0068c0.7305,14.2832-1.082,28.5083-0.9824,42.7769
				c0.0459,6.5947,0.6348,7.1904,7.0469,7.2114c6.3135,0.0205,12.627,0.0098,18.9404,0.0127C1025,393.3335,1025,410.6665,1025,428z"
				/>
			<path fill-rule="evenodd" clip-rule="evenodd" fill="#844CFE" d="M999.9951,325.999c-8.332-0.0024-16.6631-0.0044-24.9951-0.0068
				c0,0,0.0078,0.0073,0.0068,0.0073c-0.0098-8.3228-0.0195-16.645-0.0293-24.9678c0.0088-16.6758,0.0176-33.3521,0.0264-50.0278
				c8.3076-0.0049,16.6152-0.0098,24.9229-0.0142c0.0176,6.8022,0.1514,13.6074,0.0049,20.4067
				c-0.0732,3.4307,1.2197,4.7529,4.6611,4.6689c6.7988-0.166,13.6045-0.0596,20.4072-0.0654c0,8.3335,0,16.6665,0,25
				c-6.791-0.001-13.585,0.1069-20.373-0.0483c-3.416-0.0781-4.7559,1.2158-4.6758,4.6543
				c0.1582,6.7876,0.0488,13.5815,0.0508,20.373L999.9951,325.999z"/>
			<path fill-rule="evenodd" clip-rule="evenodd" fill="#8F2FFC" d="M648.959,51.8452C631.9727,34.8965,614.9863,17.9482,598,1
				c25.667,0,51.333,0,77,0c0.0039,8.3218,0.0068,16.6436,0.0107,24.9658c-6.3018,0.0117-12.6191,0.2959-18.9014-0.0537
				c-4.8252-0.2686-6.2578,1.4507-6.2383,6.2178C649.8965,38.6914,651.1172,45.3691,648.959,51.8452z"/>
			<path fill-rule="evenodd" clip-rule="evenodd" fill="#8045FE" d="M1025,376c-6.3135-0.0029-12.627,0.0078-18.9404-0.0127
				c-6.4121-0.021-7.001-0.6167-7.0469-7.2114c-0.0996-14.2686,1.7129-28.4937,0.9824-42.7769l0.0068-0.02
				c8.333,0.0073,16.665,0.0142,24.998,0.021C1025,342.6665,1025,359.3335,1025,376z"/>
			<path fill-rule="evenodd" clip-rule="evenodd" fill="#726CFE" d="M1022.8789,151.0093c0.707-0.0513,1.4209,1.585,2.1211-0.0093
				c0,16.6665,0,33.3335,0,50c-8.3369,0.0024-16.6738,0.0054-25.0107,0.0078c0-8.3262-0.001-16.6514-0.001-24.9771
				c-0.0156-8.3242-0.0312-16.6479-0.0469-24.9717l0.0771-0.0776C1007.6387,150.9907,1015.2588,151,1022.8789,151.0093z"/>
			<path fill-rule="evenodd" clip-rule="evenodd" fill="#726CFE" d="M1025,276c-6.8027,0.0059-13.6084-0.1006-20.4072,0.0654
				c-3.4414,0.084-4.7344-1.2383-4.6611-4.6689c0.1465-6.7993,0.0127-13.6045-0.0039-20.4067
				c0.0273-8.3325,0.0537-16.665,0.0801-24.9976c8.3311,0.0024,16.6611,0.0054,24.9922,0.0078C1025,242.6665,1025,259.3335,1025,276
				z"/>
			<path fill-rule="evenodd" clip-rule="evenodd" fill="#8F2FFC" d="M875,1c-1.459,0.7051,0.1299,1.3462,0.042,2.022
				c-0.0176,7.6533-0.0342,15.3076-0.0508,22.9614l-0.0254-0.0146c-8.3135,0.0166-16.6279,0.0332-24.9414,0.0498
				C850.0166,17.6792,850.0078,9.3394,850,1C858.333,1,866.667,1,875,1z"/>
			<path fill-rule="evenodd" clip-rule="evenodd" fill="#567EFE" d="M1025,226c-8.3311-0.0024-16.6611-0.0054-24.9922-0.0078l0,0
				c0-8.3345-0.001-16.6694-0.001-25.0039l-0.0176,0.0195c8.3369-0.0024,16.6738-0.0054,25.0107-0.0078
				C1025,209.3335,1025,217.6665,1025,226z"/>
			<path fill-rule="evenodd" clip-rule="evenodd" fill="#8C48FE" d="M850,1c0.0078,8.3394,0.0166,16.6792,0.0244,25.0186
				l-0.0068,0.0049c-8.3457-0.0044-16.6914-0.0088-25.0371-0.0132l0.0078,0.0093C824.9922,17.6797,824.9961,9.3398,825,1
				C833.333,1,841.667,1,850,1z"/>
			<path fill-rule="evenodd" clip-rule="evenodd" fill="#8F2FFC" d="M825,1c-0.0039,8.3398-0.0078,16.6797-0.0117,25.0195
				c-8.3291,0.0015-16.6572,0.0029-24.9863,0.0049c0-8.3413-0.001-16.6831-0.002-25.0244C808.333,1,816.667,1,825,1z"/>
			<path fill-rule="evenodd" clip-rule="evenodd" fill="#744BFE" d="M1025,326c-8.333-0.0068-16.665-0.0137-24.998-0.021
				c-0.002-6.7915,0.1074-13.5854-0.0508-20.373c-0.0801-3.4385,1.2598-4.7324,4.6758-4.6543
				c6.7881,0.1553,13.582,0.0474,20.373,0.0483C1025,309.3335,1025,317.6665,1025,326z"/>
			<path fill-rule="evenodd" clip-rule="evenodd" fill="#8131FD" d="M675.0107,25.9653C675.0068,17.6436,675.0039,9.3218,675,1
				c8.333,0,16.667,0,25,0c-0.002,8.3247-0.0029,16.6494-0.0049,24.9746C691.667,25.9717,683.3389,25.9688,675.0107,25.9653z"/>
			<path fill-rule="evenodd" clip-rule="evenodd" fill="#37A1FC" d="M824.9824,227.9575c-0.6387-0.5068-1.3359-0.9556-1.9092-1.5288
				c-32.2002-32.2178-64.3916-64.4448-96.5742-96.6802c-0.5781-0.5791-1.0459-1.2686-1.5635-1.9058
				c0.0527-0.5859,0.1045-1.1729,0.1572-1.7598c6.7852-0.0239,13.5742-0.1724,20.3555-0.021
				c3.4785,0.0781,4.667-1.3066,4.6045-4.6909c-0.126-6.7817,0.0361-13.5688,0.0801-20.3535
				c8.2705,0.0103,16.541,0.02,24.8115,0.0298c0.0293,8.3003,0.0576,16.6006,0.0869,24.9009
				c0.0107,8.3813,0.0215,16.7627,0.0322,25.144c-0.0127,6.7881,0.1045,13.5801-0.0938,20.3628
				c-0.1016,3.478,1.2148,4.7095,4.6357,4.5854c5.291-0.1919,10.6006-0.2056,15.8906,0.0024
				c3.5439,0.1396,4.6045-1.3379,4.5293-4.6929c-0.1523-6.7837-0.0068-13.5742,0.0166-20.3623l-0.0508,0.0459
				c8.3389,0.0103,16.6787,0.0205,25.0186,0.0303c0.0088,8.3247,0.0186,16.6499,0.0273,24.9751
				c0.0098,8.3125,0.0186,16.6255,0.0283,24.938C825.0381,209.9707,825.0107,218.9639,824.9824,227.9575z"/>
			<path fill-rule="evenodd" clip-rule="evenodd" fill="#744BFE" d="M975,325.9922c-0.001,6.791-0.1123,13.585,0.0449,20.3721
				c0.0791,3.4126-1.1924,4.7847-4.6416,4.6729c-5.2949-0.1714-10.5996-0.0571-15.8994-0.0283
				c-1.792,0.0098-3.7666-0.2852-4.5654,2.0181c-9.3457-8.6948-18.3447-17.7363-27.0576-27.062
				c2.1543-0.5952,2.0254-2.3599,2.0293-4.0239c0.0146-5.4829-0.1396-10.9712,0.0566-16.4468
				c0.1289-3.5947-1.4775-4.6245-4.7852-4.5166c-4.9795,0.1616-9.9756-0.1372-14.9492,0.0947
				c-3.8242,0.1777-5.417-1.0913-5.252-5.0972c0.2734-6.6353,0.1338-13.2876,0.167-19.9331
				c16.6094-0.0254,33.2197-0.0503,49.8311-0.0757c0.0156,8.355,0.0312,16.71,0.0469,25.0649
				c-0.0049,6.7886,0.1045,13.5796-0.0605,20.3643c-0.084,3.4502,1.2725,4.7134,4.6777,4.6367
				c6.7852-0.1528,13.5762-0.0371,20.3652-0.0327L975,325.9922z"/>
			<path fill-rule="evenodd" clip-rule="evenodd" fill="#4678FD" d="M900.1484,276.042c-0.0342,6.6455,0.1055,13.2979-0.168,19.9331
				c-0.165,4.0059,1.4277,5.2749,5.252,5.0972c4.9736-0.2319,9.9697,0.0669,14.9492-0.0947
				c3.3076-0.1079,4.9141,0.9219,4.7852,4.5166c-0.1963,5.4756-0.042,10.9639-0.0566,16.4468
				c-0.0039,1.6641,0.125,3.4287-2.0293,4.0239c-8.6299-8.5059-17.3057-16.9644-25.8779-25.5259
				c-23.29-23.2583-46.5381-46.5576-69.79-69.853c-0.8086-0.8105-1.4893-1.749-2.2295-2.6284
				c0.0273-8.9937,0.0547-17.9868,0.0811-26.98c8.3154,0.0088,16.6309,0.0176,24.9473,0.0264
				c-0.002,14.9346,0.0898,29.8706-0.0684,44.8037c-0.04,3.8374,1.1631,5.3779,5.1309,5.2314
				c6.6289-0.2446,13.2734-0.0786,19.9102-0.0854c8.3506,0.019,16.7002,0.0381,25.0498,0.0571
				C900.0723,259.3545,900.1104,267.6982,900.1484,276.042z"/>
			<path fill-rule="evenodd" clip-rule="evenodd" fill="#8A65FE" d="M700.0273,50.9829c8.3232,0.0078,16.6465,0.0156,24.9707,0.0234
				c0.0029,8.3335,0.0059,16.667,0.0088,25.0005c-6.8008-0.0005-13.6035,0.1128-20.3994-0.0493
				c-3.459-0.0825-4.7236,1.2798-4.6426,4.6899c0.1621,6.7969,0.0605,13.5996,0.0664,20.3999
				c0.0029,0.6265,0.0059,1.2534,0.0078,1.8799c-9.252-8.6855-18.2344-17.6401-26.8838-26.9277
				c2.2852-0.8774,1.8301-2.8887,1.8486-4.6387c0.0479-4.6216,0.0078-9.2437,0.0205-13.8657
				c0.0166-6.4546,0.0234-6.457,6.6807-6.4741C687.8125,51.0054,693.9199,50.9956,700.0273,50.9829z"/>
			<path fill-rule="evenodd" clip-rule="evenodd" fill="#8C48FE" d="M700.0273,50.9829
				c-6.1074,0.0127-12.2148,0.0225-18.3223,0.0381c-6.6572,0.0171-6.6641,0.0195-6.6807,6.4741
				c-0.0127,4.6221,0.0273,9.2441-0.0205,13.8657c-0.0186,1.75,0.4365,3.7612-1.8486,4.6387
				c-8.3799-7.7354-16.3799-15.8506-24.1953-24.1538c2.1572-6.4766,0.9365-13.1543,0.9111-19.7158
				c-0.0195-4.7671,1.4131-6.4863,6.2383-6.2178c6.2822,0.3496,12.5996,0.0654,18.9014,0.0537
				c8.3281,0.0029,16.6562,0.0059,24.9844,0.0088C700.0059,34.3105,700.0166,42.647,700.0273,50.9829z"/>
			<path fill-rule="evenodd" clip-rule="evenodd" fill="#726CFE" d="M700.0391,102.9272c-0.002-0.6265-0.0049-1.2534-0.0078-1.8804
				c8.3223-0.0122,16.6445-0.0239,24.9668-0.0356c0.0312,8.3574,0.0635,16.7144,0.0947,25.0718
				c-0.0527,0.5869-0.1045,1.1738-0.1572,1.7598C716.3047,119.8687,708.0215,111.5483,700.0391,102.9272z"/>
			<path fill-rule="evenodd" clip-rule="evenodd" fill="#8C48FE" d="M899.999,27.9888
				c8.6631,8.0225,17.0078,16.3628,25.0117,25.0435c0.0039,7.6631,0.0088,15.3262,0.0127,22.9893l-0.002,0.0024
				c-6.7969-0.0098-13.5967,0.0898-20.3896-0.0747c-3.4131-0.0825-4.751,1.1914-4.6816,4.6436
				c0.1357,6.7925-0.0176,13.5908-0.0508,20.3867c-8.2959,0.0073-16.5918,0.0146-24.8877,0.022
				c-0.0059-6.7939-0.125-13.5903,0.0293-20.3804c0.0771-3.4331-1.2354-4.7383-4.665-4.6592
				c-6.79,0.1558-13.5859,0.0396-20.3799,0.0356c-0.0137-8.3379-0.0283-16.6753-0.042-25.0132L850,51
				c8.3291-0.0029,16.6582-0.0063,24.9883-0.0093c6.793,0.0005,13.5879-0.1084,20.3779,0.0483
				c3.4238,0.0791,4.7568-1.2271,4.668-4.6606C899.874,40.2524,899.9951,34.1191,899.999,27.9888z"/>
			<path fill-rule="evenodd" clip-rule="evenodd" fill="#8D80FE" d="M972.9551,100.9883c0.6924,0.6909,1.3848,1.3823,2.0771,2.0728
				c0.0107,7.6489,0.0205,15.2979,0.0312,22.9468l-0.1807,0.1919c-8.2715-0.0596-16.543-0.1196-24.8154-0.1792
				c-8.3594-0.0117-16.7188-0.0234-25.0791-0.0347c0.0049-8.3047,0.0088-16.6089,0.0137-24.9136
				c0.0059-8.3496,0.0127-16.6987,0.0195-25.0483c0,0,0.002-0.0024,0.002-0.0029c7.6533-0.001,15.3076-0.0015,22.9609-0.0024
				c0.6738,0.666,1.3486,1.3315,2.0225,1.9971c-0.0068,6.2949,0.0557,12.5913-0.0527,18.8843
				c-0.0508,2.9575,1.1387,4.1885,4.1162,4.1367C960.3633,100.9268,966.6602,100.9937,972.9551,100.9883z"/>
			<path fill-rule="evenodd" clip-rule="evenodd" fill="#726CFE" d="M997.9443,125.9966c0.6758,0.687,1.3516,1.374,2.0273,2.061
				c0.0156,7.6416,0.0312,15.2827,0.0469,22.9238c0,0-0.0771,0.0776-0.0771,0.0767c-8.3291-0.04-16.6582-0.0796-24.9873-0.1187
				c-0.0234-8.2461-0.0469-16.4927-0.0713-24.7397c0,0,0.1807-0.1919,0.1797-0.1919
				C982.6895,126.0039,990.3164,126,997.9443,125.9966z"/>
			<path fill-rule="evenodd" clip-rule="evenodd" fill="#844CFE" d="M899.999,27.9888c-0.0039,6.1304-0.125,12.2637,0.0352,18.3896
				c0.0889,3.4336-1.2441,4.7397-4.668,4.6606c-6.79-0.1567-13.585-0.0479-20.3779-0.0483
				c-0.0078-8.3403-0.0146-16.6812-0.0225-25.022l0.0254,0.0146c7.6631,0.0005,15.3271,0.0005,22.9902,0
				C898.6543,26.6519,899.3262,27.3203,899.999,27.9888z"/>
			<path fill-rule="evenodd" clip-rule="evenodd" fill="#8C48FE" d="M972.9551,100.9883
				c-6.2949,0.0054-12.5918-0.0615-18.8848,0.0483c-2.9775,0.0518-4.167-1.1792-4.1162-4.1367
				c0.1084-6.293,0.0459-12.5894,0.0527-18.8843C957.9785,85.3516,965.6318,93.0044,972.9551,100.9883z"/>
			<path fill-rule="evenodd" clip-rule="evenodd" fill="#8D80FE" d="M1000.0186,150.9814
				c-0.0156-7.6411-0.0312-15.2822-0.0469-22.9238c7.9648,7.3223,15.6279,14.9458,22.9072,22.9517
				C1015.2588,151,1007.6387,150.9907,1000.0186,150.9814z"/>
			<path fill-rule="evenodd" clip-rule="evenodd" fill="#8A65FE" d="M897.9814,25.9834c-7.6631,0.0005-15.3271,0.0005-22.9902,0
				c0.0166-7.6538,0.0332-15.3081,0.0508-22.9614C883.0098,10.356,890.6602,18.0054,897.9814,25.9834z"/>
			<path fill-rule="evenodd" clip-rule="evenodd" fill="#8A65FE" d="M947.9844,76.0186c-7.6533,0.001-15.3076,0.0015-22.9609,0.0024
				c-0.0039-7.6626-0.0088-15.3257-0.0127-22.9888C932.9932,60.3701,940.6348,68.0483,947.9844,76.0186z"/>
			<path fill-rule="evenodd" clip-rule="evenodd" fill="#8C48FE" d="M997.9443,125.9966
				c-7.6279,0.0034-15.2549,0.0073-22.8818,0.0112c-0.0098-7.6489-0.0195-15.2979-0.0303-22.9468
				C982.999,110.3779,990.6328,118.0259,997.9443,125.9966z"/>
			<path fill-rule="evenodd" clip-rule="evenodd" fill="#844CFE" d="M725.0068,76.0068c-0.0029-8.3335-0.0059-16.667-0.0088-25.0005
				c0.0029-6.6597,0.0938-13.3208-0.0254-19.978c-0.0654-3.6196,1.4541-5.1226,5.0654-5.0552
				c6.6572,0.124,13.3184,0.0396,19.9785,0.042c-0.0049,6.79,0.1016,13.583-0.0596,20.3696
				c-0.082,3.4321,1.2402,4.7383,4.6641,4.6567c6.7871-0.1611,13.5801-0.0562,20.3701-0.0615c0,0,0.0352,0.04,0.0342,0.04
				c-0.0205,8.3257-0.041,16.6514-0.0615,24.9771l0.0371-0.0396c-8.3047,0.0391-16.6094,0.0776-24.915,0.1162
				c-8.3613-0.0234-16.7217-0.0469-25.082-0.0698L725.0068,76.0068z"/>
			<path fill-rule="evenodd" clip-rule="evenodd" fill="#4692FE" d="M774.9639,75.9971c0.0205-8.3257,0.041-16.6514,0.0615-24.9771
				c8.3096,0.0127,16.6191,0.0249,24.9277,0.0371c0.001,0-0.0342,0.0005-0.0342,0c-0.0156,8.2969-0.0322,16.5933-0.0488,24.8901
				C791.5674,75.9639,783.2656,75.9805,774.9639,75.9971z"/>
			<path fill-rule="evenodd" clip-rule="evenodd" fill="#8A65FE" d="M800.002,26.0244c8.3291-0.002,16.6572-0.0034,24.9863-0.0049
				l-0.0078-0.0093c0.0342,8.3384,0.0684,16.6768,0.1016,25.0151l-0.1592-0.0386c-8.335,0.0234-16.6689,0.0474-25.0039,0.0708
				c0,0,0.0352-0.0005,0.0342-0.0005C799.9697,42.7134,799.9863,34.3687,800.002,26.0244z"/>
			<path fill-rule="evenodd" clip-rule="evenodd" fill="#7C5CFE" d="M774.9912,50.98c-6.79,0.0054-13.583-0.0996-20.3701,0.0615
				c-3.4238,0.0815-4.7461-1.2246-4.6641-4.6567c0.1611-6.7866,0.0547-13.5796,0.0596-20.3696
				c6.7891,0,13.5811,0.1113,20.3662-0.0474c3.418-0.0801,4.7529,1.2056,4.6699,4.6455
				C774.8887,37.3989,774.9961,44.1909,774.9912,50.98z"/>
			<path fill-rule="evenodd" clip-rule="evenodd" fill="#8045FE" d="M950.0254,301.0312c-0.0156-8.355-0.0312-16.71-0.0469-25.0645
				c0.0039-8.3262,0.0078-16.6523,0.0117-24.979c8.333,0.0015,16.667,0.0024,25,0.0034l0.0137,0.0127
				c-0.0088,16.6758-0.0176,33.3521-0.0254,50.0273C966.6611,301.0308,958.3428,301.0312,950.0254,301.0312z"/>
			<path fill-rule="evenodd" clip-rule="evenodd" fill="#8045FE" d="M1000.0078,225.9922
				c-0.0264,8.3325-0.0527,16.665-0.0801,24.9976c-8.3086,0.0044-16.6162,0.0093-24.9238,0.0142c0,0-0.0137-0.0127-0.0137-0.0122
				c0-8.3271,0-16.6543,0-24.9819C983.3291,226.0039,991.6689,225.998,1000.0078,225.9922L1000.0078,225.9922z"/>
			<path fill-rule="evenodd" clip-rule="evenodd" fill="#8131FD" d="M950.0254,301.0312c8.3174,0,16.6357-0.0005,24.9531,0
				c0.0088,8.3232,0.0186,16.6455,0.0283,24.9683c-6.7881-0.0044-13.5791-0.1201-20.3643,0.0327
				c-3.4053,0.0767-4.7617-1.1865-4.6777-4.6367C950.1299,314.6108,950.0205,307.8198,950.0254,301.0312z"/>
			<path fill-rule="evenodd" clip-rule="evenodd" fill="#6F8DFE" d="M999.9883,176.0308c0,8.3257,0.001,16.6509,0.001,24.9771
				l0.0176-0.0195c-8.3232-0.0078-16.6465-0.0161-24.9707-0.0234c-0.0117-8.3101-0.0234-16.6201-0.0361-24.9302
				C983.3291,176.0332,991.6582,176.0322,999.9883,176.0308z"/>
			<path fill-rule="evenodd" clip-rule="evenodd" fill="#744BFE" d="M999.9883,176.0308
				c-8.3301,0.0015-16.6592,0.0024-24.9883,0.0039c0-8.354-0.001-16.7075-0.002-25.061l-0.0439-0.0347
				c8.3291,0.0396,16.6582,0.0791,24.9873,0.1191C999.957,159.3828,999.9727,167.7065,999.9883,176.0308z"/>
			<path fill-rule="evenodd" clip-rule="evenodd" fill="#744BFE" d="M874.9658,25.9688c0.0078,8.3408,0.0146,16.6816,0.0225,25.022
				C866.6582,50.9937,858.3291,50.9971,850,51c0.0059-8.3257,0.0117-16.6514,0.0176-24.9766l0.0068-0.0049
				C858.3379,26.002,866.6523,25.9854,874.9658,25.9688z"/>
			<path fill-rule="evenodd" clip-rule="evenodd" fill="#726CFE" d="M975.0371,200.9644
				c8.3232,0.0078,16.6465,0.0161,24.9697,0.0239c0,8.3345,0.001,16.6694,0.001,25.0039
				c-8.3389,0.0059-16.6787,0.0117-25.0176,0.0176l0.0215-0.0127c-0.041-8.3203-0.0811-16.6401-0.1211-24.9604L975.0371,200.9644z"
				/>
			<path fill-rule="evenodd" clip-rule="evenodd" fill="#8F2FFC" d="M850.0176,26.0234C850.0117,34.3486,850.0059,42.6743,850,51
				c0,0-0.0459-0.0156-0.0449-0.0156c-8.291,0.0142-16.582,0.0278-24.873,0.041c-0.0332-8.3384-0.0674-16.6768-0.1016-25.0151
				C833.3262,26.0146,841.6719,26.019,850.0176,26.0234z"/>
			<path fill-rule="evenodd" clip-rule="evenodd" fill="#726CFE" d="M825.0098,151.0645
				c-8.3398-0.0103-16.6797-0.0205-25.0186-0.0308c-0.0186-8.3413-0.0361-16.6826-0.0547-25.0239
				c0.0254-8.3398,0.0518-16.6792,0.0771-25.0186c8.3428-0.0156,16.6865-0.0312,25.0293-0.0469
				c8.3193,0.0176,16.6377,0.0356,24.957,0.0537l0.002,0.002c0.0146,8.3164,0.0283,16.6328,0.042,24.9502
				c-6.6221,0.0112-13.248,0.1797-19.8633-0.0278c-3.8145-0.1196-5.375,1.1294-5.2412,5.1035
				c0.2227,6.6128,0.0205,13.2397-0.002,19.8613L825.0098,151.0645z"/>
			<path fill-rule="evenodd" clip-rule="evenodd" fill="#6F8DFE" d="M800.0137,100.9907
				c-0.0254,8.3398-0.0518,16.6792-0.0771,25.019c-8.3008-0.0205-16.6035-0.041-24.9053-0.0615
				c-0.0293-8.3003-0.0576-16.6006-0.0869-24.9014c0.0195-8.3633,0.0381-16.7266,0.0566-25.0894l-0.0371,0.0396
				c8.3018-0.0166,16.6035-0.0332,24.9072-0.0493C799.9189,84.2954,799.9668,92.6431,800.0137,100.9907z"/>
			<path fill-rule="evenodd" clip-rule="evenodd" fill="#567EFE" d="M850.0117,201.0039
				c-8.3164-0.0088-16.6318-0.0176-24.9473-0.0264c-0.0088-8.313-0.0176-16.626-0.0273-24.939
				c8.3145-0.019,16.6299-0.0371,24.9443-0.0557c0.0078,8.3428,0.0146,16.686,0.0215,25.0288L850.0117,201.0039z"/>
			<path fill-rule="evenodd" clip-rule="evenodd" fill="#4692FE" d="M775.001,75.9575c-0.0186,8.3628-0.0371,16.7261-0.0566,25.0894
				c-8.2705-0.0093-16.541-0.019-24.8135-0.0293c-0.001,0-0.2441-0.0386-0.2432-0.0386c0.0674-8.3013,0.1328-16.603,0.1992-24.9048
				C758.3916,76.0352,766.6963,75.9966,775.001,75.9575z"/>
			<path fill-rule="evenodd" clip-rule="evenodd" fill="#567EFE" d="M725.0928,126.083
				c-0.0312-8.3574-0.0635-16.7144-0.0947-25.0718l0.0137-0.0132c8.291-0.0063,16.583-0.0127,24.875-0.019
				c0,0,0.2432,0.0386,0.2441,0.0386c-0.042,6.7847-0.2041,13.5718-0.0781,20.3535c0.0625,3.3843-1.126,4.769-4.6045,4.6909
				C738.667,125.9106,731.8779,126.0591,725.0928,126.083z"/>
			<path fill-rule="evenodd" clip-rule="evenodd" fill="#4692FE" d="M775.0312,125.9482c8.3018,0.0205,16.6045,0.041,24.9053,0.0615
				c0.0186,8.3413,0.0361,16.6826,0.0547,25.0239c0,0,0.0508-0.0459,0.0498-0.0459c-8.3262,0.0347-16.6514,0.0698-24.9775,0.1045
				C775.0527,142.7109,775.042,134.3296,775.0312,125.9482z"/>
			<path fill-rule="evenodd" clip-rule="evenodd" fill="#4692FE" d="M849.9814,175.9829
				c-8.3145,0.0186-16.6299,0.0366-24.9443,0.0557c-0.0088-8.3247-0.0186-16.6499-0.0273-24.9746
				c0,0.0005-0.0723-0.1768-0.0723-0.1758c8.3359,0.0542,16.6709,0.1079,25.0059,0.1606
				c0.0176,8.3184,0.0352,16.6367,0.0518,24.9556L849.9814,175.9829z"/>
			<path fill-rule="evenodd" clip-rule="evenodd" fill="#726CFE" d="M775.0635,151.0923
				c8.3262-0.0347,16.6514-0.0698,24.9775-0.1045c-0.0225,6.7881-0.168,13.5786-0.0156,20.3623
				c0.0752,3.355-0.9854,4.8325-4.5293,4.6929c-5.29-0.208-10.5996-0.1943-15.8906-0.0024
				c-3.4209,0.124-4.7373-1.1074-4.6357-4.5854C775.168,164.6724,775.0508,157.8804,775.0635,151.0923z"/>
			<path fill-rule="evenodd" clip-rule="evenodd" fill="#726CFE" d="M949.9902,250.9878
				c-0.0039,8.3267-0.0078,16.6528-0.0117,24.979c-16.6113,0.0249-33.2217,0.0498-49.8311,0.0752
				c-0.0371-8.3438-0.0752-16.6875-0.1143-25.0317c8.332-0.0039,16.6641-0.0083,24.9951-0.0122
				c8.3271,0.002,16.6543,0.0044,24.9814,0.0063L949.9902,250.9878z"/>
			<path fill-rule="evenodd" clip-rule="evenodd" fill="#4692FE" d="M874.9844,250.9536
				c-6.6367,0.0068-13.2812-0.1592-19.9102,0.0854c-3.9678,0.1465-5.1709-1.394-5.1309-5.2314
				c0.1582-14.9331,0.0664-29.8691,0.0684-44.8037l-0.0088,0.0078c8.3564-0.0234,16.7119-0.0469,25.0674-0.0698
				c8.3125,0.0171,16.625,0.0337,24.9375,0.0508c-0.001,8.334-0.0029,16.6685-0.0039,25.0029
				c-6.7891,0.0015-13.5801,0.1128-20.3662-0.0425c-3.4043-0.0781-4.7598,1.1831-4.6797,4.6353
				C875.1143,237.373,874.9922,244.1646,874.9844,250.9536z"/>
			<path fill-rule="evenodd" clip-rule="evenodd" fill="#567EFE" d="M874.9844,250.9536
				c0.0078-6.7891,0.1299-13.5806-0.0264-20.3652c-0.0801-3.4521,1.2754-4.7134,4.6797-4.6353
				c6.7861,0.1553,13.5771,0.0439,20.3662,0.0425c8.334,0.0098,16.668,0.019,25.001,0.0283
				c0.0078,8.3247,0.0166,16.6494,0.0244,24.9741c-8.332,0.0039-16.6641,0.0083-24.9961,0.0122
				C891.6846,250.9917,883.335,250.9727,874.9844,250.9536z"/>
			<path fill-rule="evenodd" clip-rule="evenodd" fill="#844CFE" d="M724.998,101.0112
				c-8.3223,0.0117-16.6445,0.0234-24.9668,0.0356c-0.0059-6.7998,0.0957-13.6025-0.0664-20.3994
				c-0.0811-3.4102,1.1836-4.7725,4.6426-4.6899c6.7959,0.1621,13.5986,0.0488,20.3994,0.0493l-0.0029-0.0029
				c0.002,8.3315,0.0049,16.6626,0.0078,24.9941L724.998,101.0112z"/>
			<path fill-rule="evenodd" clip-rule="evenodd" fill="#844CFE" d="M850.0439,125.9497
				c-0.0137-8.3169-0.0273-16.6333-0.042-24.9497c8.3369,0.0005,16.6738,0.001,25.0098,0.0015
				c8.2959-0.0073,16.5918-0.0146,24.8887-0.0215c0.001,0,0.2012,0.0483,0.2012,0.0483
				c-0.0439,8.3232-0.0889,16.6465-0.1328,24.9697c-16.6396-0.0142-33.2803-0.0278-49.9209-0.0415L850.0439,125.9497z"/>
			<path fill-rule="evenodd" clip-rule="evenodd" fill="#8131FD" d="M825.082,51.0254c8.291-0.0132,16.582-0.0269,24.873-0.041
				c0.0127,8.3379,0.0273,16.6753,0.041,25.0132l0.0107,0.0088c-8.3242-0.0156-16.6484-0.0308-24.9727-0.0464
				c-0.0371-8.3242-0.0742-16.6489-0.1113-24.9731L825.082,51.0254z"/>
			<path fill-rule="evenodd" clip-rule="evenodd" fill="#7C5CFE" d="M875.0117,101.0015
				c-8.3359-0.0005-16.6729-0.001-25.0098-0.0015L850,100.998c0.002-8.3306,0.0049-16.6611,0.0068-24.9917l-0.0107-0.0088
				c6.7939,0.0039,13.5898,0.1201,20.3799-0.0356c3.4297-0.0791,4.7422,1.2261,4.665,4.6592
				C874.8867,87.4111,875.0059,94.2075,875.0117,101.0015z"/>
			<path fill-rule="evenodd" clip-rule="evenodd" fill="#8A65FE" d="M925.0215,76.0239
				c-0.0068,8.3496-0.0137,16.6987-0.0195,25.0474c-8.2998-0.0146-16.5996-0.0288-24.9004-0.043c0,0-0.2002-0.0483-0.2012-0.0483
				c0.0322-6.7964,0.1855-13.5947,0.0498-20.3872c-0.0693-3.4521,1.2686-4.7261,4.6816-4.6436
				C911.4248,76.1138,918.2246,76.0142,925.0215,76.0239z"/>
			<path fill-rule="evenodd" clip-rule="evenodd" fill="#6F8DFE" d="M900.1016,101.0283c8.3008,0.0142,16.6006,0.0283,24.9004,0.043
				c-0.0049,8.3057-0.0088,16.6099-0.0137,24.9146c0,0.0005-0.0029,0.0024-0.002,0.0024
				c-8.3086-0.0088-16.6172-0.0171-24.9248-0.0259l-0.0928,0.0356C900.0127,117.6748,900.0576,109.3516,900.1016,101.0283z"/>
			<path fill-rule="evenodd" clip-rule="evenodd" fill="#567EFE" d="M974.8828,126.1997
				c0.0244,8.2471,0.0479,16.4937,0.0713,24.7397c0-0.0005,0.0439,0.0342,0.0439,0.0347
				c-8.3184-0.0054-16.6377-0.0112-24.957-0.0171c0.0088-8.3125,0.0176-16.6245,0.0264-24.9365
				C958.3398,126.0801,966.6113,126.1401,974.8828,126.1997z"/>
			<path fill-rule="evenodd" clip-rule="evenodd" fill="#8A65FE" d="M950.0674,126.0205c-0.0088,8.312-0.0176,16.624-0.0264,24.9365
				l-0.0498,0.0513c-8.3164-0.0171-16.6328-0.0342-24.9492-0.0508c-0.0186-8.3232-0.0381-16.6465-0.0566-24.9692
				c0,0,0.0029-0.002,0.0029-0.0024C933.3486,125.9971,941.708,126.0088,950.0674,126.0205z"/>
			<path fill-rule="evenodd" clip-rule="evenodd" fill="#726CFE" d="M725.0117,100.998
				c-0.0029-8.3315-0.0059-16.6626-0.0078-24.9941c8.3604,0.0229,16.7207,0.0464,25.082,0.0698
				c-0.0654,8.3022-0.1309,16.604-0.1982,24.9053C741.5947,100.9854,733.3027,100.9917,725.0117,100.998z"/>
			<path fill-rule="evenodd" clip-rule="evenodd" fill="#7C5CFE" d="M824.9229,50.9868c0.0371,8.3242,0.0742,16.6489,0.1113,24.9736
				c0.0029,8.3281,0.0059,16.6558,0.0088,24.9839c-8.3428,0.0156-16.6865,0.0312-25.0293,0.0469
				c-0.0469-8.3481-0.0947-16.6958-0.1426-25.0435c0.0156-8.2974,0.0322-16.5938,0.0479-24.8906
				C808.2539,51.0342,816.5879,51.0103,824.9229,50.9868z"/>
			<path fill-rule="evenodd" clip-rule="evenodd" fill="#8A65FE" d="M974.9902,226.0098c0,8.3276,0,16.6548,0,24.9819
				c-8.333-0.0015-16.667-0.0024-25-0.0039l0.0195,0.0166c-0.0059-8.3301-0.0117-16.6602-0.0166-24.9902
				c8.3389-0.0059,16.6787-0.0112,25.0186-0.0171L974.9902,226.0098z"/>
			<path fill-rule="evenodd" clip-rule="evenodd" fill="#8A65FE" d="M950.041,150.957c8.3193,0.0059,16.6387,0.0117,24.957,0.0171
				c0.001,8.353,0.002,16.7065,0.002,25.0605c0.0127,8.3101,0.0244,16.6201,0.0361,24.9302
				c0.001-0.0005-0.1455,0.0718-0.1445,0.0713c-8.2832-0.0044-16.5674-0.0083-24.8516-0.0127
				c-0.0273-8.3237-0.0537-16.6479-0.0791-24.9717c0.0098-8.3477,0.0205-16.6958,0.0303-25.0435L950.041,150.957z"/>
			<path fill-rule="evenodd" clip-rule="evenodd" fill="#744BFE" d="M950.04,201.0239c8.2842,0.0039,16.5684,0.0078,24.8516,0.0122
				c0.0391,8.3208,0.0791,16.6406,0.1201,24.9609c-8.3398,0.0059-16.6797,0.0112-25.0186,0.0171c0,0,0.0215-0.0083,0.0205-0.0083
				c-0.0039-8.3306-0.0078-16.6611-0.0117-24.9917L950.04,201.0239z"/>
			<path fill-rule="evenodd" clip-rule="evenodd" fill="#844CFE" d="M825.043,100.9443
				c-0.0029-8.3281-0.0059-16.6558-0.0088-24.9839c8.3242,0.0151,16.6484,0.0303,24.9727,0.0459
				c-0.002,8.3306-0.0049,16.6611-0.0068,24.9917C841.6807,100.98,833.3623,100.9619,825.043,100.9443z"/>
			<path fill-rule="evenodd" clip-rule="evenodd" fill="#6F8DFE" d="M849.9434,151.0493
				c-8.335-0.0532-16.6699-0.1069-25.0059-0.1611c0.0225-6.6226,0.2246-13.2495,0.002-19.8623
				c-0.1338-3.9741,1.4268-5.2231,5.2412-5.1035c6.6152,0.2075,13.2412,0.0391,19.8633,0.0278c0-0.0005,0.0039,0.0063,0.0039,0.0063
				C850.0127,134.3213,849.9775,142.6851,849.9434,151.0493z"/>
			<path fill-rule="evenodd" clip-rule="evenodd" fill="#4678FD" d="M875.0703,200.9419
				c-8.3555,0.0229-16.7109,0.0464-25.0674,0.0698c-0.0068-8.3428-0.0137-16.686-0.0215-25.0288l0.0137,0.0215
				c8.3252-0.0137,16.6494-0.0278,24.9746-0.0415C875.0029,184.2896,875.0371,192.6157,875.0703,200.9419z"/>
			<path fill-rule="evenodd" clip-rule="evenodd" fill="#726CFE" d="M874.9697,175.9629
				c-8.3252,0.0137-16.6494,0.0278-24.9746,0.0415c-0.0166-8.3188-0.0342-16.6372-0.0518-24.9556
				c0.0342-8.3638,0.0693-16.7275,0.1045-25.0923c16.6406,0.0137,33.2812,0.0273,49.9209,0.0415c0,0,0.0928-0.0356,0.0918-0.0356
				c-0.0439,8.3374-0.0879,16.6738-0.1309,25.0107c-6.7988,0.0068-13.6006,0.1421-20.3955-0.0332
				c-3.4873-0.0903-4.6836,1.2671-4.6006,4.6733c0.166,6.7949,0.043,13.5967,0.0391,20.396L874.9697,175.9629z"/>
			<path fill-rule="evenodd" clip-rule="evenodd" fill="#844CFE" d="M949.9932,226.0142
				c0.0049,8.3301,0.0107,16.6602,0.0166,24.9902c-8.3271-0.002-16.6543-0.0044-24.9814-0.0063
				c-0.0068-8.3247-0.0156-16.6494-0.0234-24.9741c0,0,0.0742,0.0396,0.0732,0.0386c8.3115-0.019,16.624-0.0376,24.9365-0.0566
				L949.9932,226.0142z"/>
			<path fill-rule="evenodd" clip-rule="evenodd" fill="#6F8DFE" d="M925.0049,226.0239c-8.333-0.0093-16.667-0.0186-25.001-0.0283
				c0.001-8.3345,0.0029-16.6689,0.0039-25.0029l-0.0166,0.0161c8.3135-0.0259,16.627-0.0518,24.9395-0.0776l0.1367,0.1353
				c0.0039,8.3325,0.0078,16.6646,0.0117,24.9971L925.0049,226.0239z"/>
			<path fill-rule="evenodd" clip-rule="evenodd" fill="#6F8DFE" d="M875.0703,200.9419
				c-0.0332-8.3262-0.0674-16.6523-0.1006-24.979c0,0,0.0029,0.0464,0.0039,0.0464c8.3408-0.0015,16.6816-0.0034,25.0225-0.0049
				c-0.002,8.335-0.0029,16.6699-0.0049,25.0044l0.0166-0.0161C891.6953,200.9756,883.3828,200.959,875.0703,200.9419z"/>
			<path fill-rule="evenodd" clip-rule="evenodd" fill="#8D80FE" d="M899.9287,150.9727
				c0.0439-8.3364,0.0879-16.6729,0.1318-25.0103c8.3086,0.0088,16.6172,0.0171,24.9258,0.0259
				c0.0176,8.3228,0.0371,16.646,0.0547,24.9697c0,0.0005-0.0605,0.0625-0.0605,0.062c-8.3428,0.0103-16.6855,0.021-25.0283,0.0317
				L899.9287,150.9727z"/>
			<path fill-rule="evenodd" clip-rule="evenodd" fill="#8D80FE" d="M949.9912,151.0083
				c-0.0098,8.3477-0.0205,16.6958-0.0303,25.043c-8.333,0.0015-16.666,0.0039-25,0.0063l-0.0127-0.0249
				c0.0107-8.3374,0.0215-16.6748,0.0322-25.0122c0,0,0.0605-0.062,0.0605-0.0625
				C933.3584,150.9741,941.6748,150.9912,949.9912,151.0083z"/>
			<path fill-rule="evenodd" clip-rule="evenodd" fill="#6F8DFE" d="M924.9609,176.0576c8.334-0.0024,16.667-0.0049,25-0.0063
				c0.0254,8.3242,0.0518,16.6484,0.0791,24.9722c0,0.0005-0.0381-0.0093-0.0381-0.0093
				c-8.3115,0.0176-16.623,0.0347-24.9346,0.0522c0,0-0.1367-0.1353-0.1357-0.1343
				C924.9424,192.6411,924.9521,184.3496,924.9609,176.0576z"/>
			<path fill-rule="evenodd" clip-rule="evenodd" fill="#726CFE" d="M925.0674,201.0664c8.3115-0.0176,16.623-0.0347,24.9346-0.0522
				c0.0039,8.3306,0.0078,16.6611,0.0117,24.9917c-8.3115,0.019-16.624,0.0376-24.9355,0.0566
				C925.0752,217.731,925.0713,209.3989,925.0674,201.0664z"/>
			<path fill-rule="evenodd" clip-rule="evenodd" fill="#4692FE" d="M899.9951,176.0044
				c-8.3398,0.0015-16.6807,0.0034-25.0215,0.0049c0.0029-6.7993,0.126-13.6011-0.04-20.396
				c-0.083-3.4062,1.1133-4.7637,4.6006-4.6733c6.7949,0.1753,13.5967,0.04,20.3955,0.0332
				c-0.001-0.0005,0.0225,0.0786,0.0234,0.0781c0.0166,8.3145,0.0342,16.6294,0.0508,24.9443L899.9951,176.0044z"/>
			<path fill-rule="evenodd" clip-rule="evenodd" fill="#4692FE" d="M924.9609,176.0576
				c-0.0088,8.292-0.0186,16.5835-0.0293,24.8745c-8.3135,0.0249-16.627,0.0508-24.9404,0.0767
				c0.002-8.3345,0.0029-16.6694,0.0049-25.0044c-0.001,0,0.0078-0.0088,0.0078-0.0088c8.3145,0.0127,16.6299,0.0249,24.9443,0.0371
				L924.9609,176.0576z"/>
			<path fill-rule="evenodd" clip-rule="evenodd" fill="#6F8DFE" d="M924.9482,176.0327
				c-8.3145-0.0122-16.6299-0.0244-24.9443-0.0371c-0.0166-8.3149-0.0342-16.6299-0.0508-24.9443
				c8.3418-0.0103,16.6846-0.021,25.0273-0.0312C924.9697,159.3579,924.959,167.6953,924.9482,176.0327z"/>
		</g>
	</g>
	<g display="inline">
		<path fill-rule="evenodd" clip-rule="evenodd" fill="#FEFEFE" d="M947.1035,104.6147c-1.1641-1.9717-2.582-3.5957-1.5137-6.3604
			c2.6348-6.8184,0.6191-12.8594-4.4512-17.7324c-4.9609-4.7705-11.0137-6.1875-17.5332-3.6602
			c-2.5742,0.998-4.3164,0.1836-6.4629-0.959c-17.6152-9.3857-36.0645-12.6875-55.9512-8.8301
			c-43.4883,8.4355-72.9375,53.3965-64.4727,95.416c7.4492,36.9902,42.5723,68.5039,81.7305,65.7773
			c8.0547,0.8398,16.8223-0.5527,25.4473-3.5723C956.6309,206.2407,971.9941,146.7681,947.1035,104.6147z M897.5586,213.311
			c-27.9824,8.1309-52.8184,1.3145-72.0664-20.6172c-19.2539-21.9414-22.8828-47.5801-10.834-74.0498
			c11.9922-26.3447,33.8496-39.2256,62.6016-40.4814c11.4688,0.0273,22.1602,2.7578,32.2695,7.957
			c2.1152,1.0879,3.041,2.1758,2.752,4.9707c-1.1875,11.4414,8.1289,20.6445,19.4258,18.9238
			c3.7227-0.5674,4.6992,1.2168,6.0117,3.5332C959.2676,151.604,939.6387,201.0845,897.5586,213.311z"/>
		<path fill-rule="evenodd" clip-rule="evenodd" fill="#FEFEFE" d="M876.6836,101.8911
			c21.9746-0.0195,41.002,15.3457,45.1836,35.9414c4.3223,21.2969-6.7363,42.6582-26.3965,51.248
			c-3.0039,1.3125-4.4512,1.5176-5.5527-2.3926c-7.2051-25.5742-14.7031-51.0645-22.1328-76.5752
			c-2.1582-7.4053-2.1992-7.3984,5.5859-8.0312C874.6953,101.9741,876.0254,101.9282,876.6836,101.8911z"/>
		<path fill-rule="evenodd" clip-rule="evenodd" fill="#FBFBFB" d="M847.8945,113.2788
			c-2.8438,19.6221-5.5879,38.5537-8.3789,57.8076C828.2051,157.981,828.5938,128.4731,847.8945,113.2788z"/>
		<path fill-rule="evenodd" clip-rule="evenodd" fill="#FBFBFB" d="M872.7988,192.5142c-7.0957-0.7207-13.3105-2.9375-19.127-6.3633
			c-1.7363-1.0215-2.752-2.207-2.1582-4.4551c0.4805-1.8262,0.6953-3.5293,3.0098-4.0234
			c4.5547-0.9707,9.0996-2.0137,13.5996-3.2188c2.3516-0.6309,3.3965,0.2266,3.9395,2.3926
			c1.0508,4.1953,2.0742,8.4004,3.3203,12.5391C876.293,192.4185,875.0391,192.981,872.7988,192.5142z"/>
		<path fill-rule="evenodd" clip-rule="evenodd" fill="#F9F9F9" d="M860.2285,132.3364c2.2012,8.1738,4.3477,16.3652,6.6426,24.5137
			c0.6387,2.2637,0.043,3.1914-2.1992,3.9492c-10.9238,3.7012-10.9414,3.7656-9.7012-7.5801
			c0.541-4.9551,1.291-9.8867,1.9473-14.8301c1.7441-2.7734-0.2754-6.1328,1.1582-8.957
			C860.3711,129.4673,858.8965,131.8423,860.2285,132.3364z"/>
		<path fill-rule="evenodd" clip-rule="evenodd" fill="#D4D4D4" d="M860.2285,132.3364c-0.4902-0.5703-1.0273-1.6504-1.457-1.6094
			c-1.1367,0.1113-0.3438,1.2129-0.502,1.8633c-0.4727,1.9277,0.6016,4.209-1.3516,5.7988
			c-0.2637-3.9121,0.3301-7.7207,1.1934-11.9609C860.3125,128.2368,860.0977,130.3481,860.2285,132.3364z"/>
	</g>
</g>
<g id="Layer_2" display="none">
</g>
</svg>
